<svg xmlns="http://www.w3.org/2000/svg" xmlns:xlink="http://www.w3.org/1999/xlink" width="1440" viewBox="0 0 1440 810" height="810" version="1.0"><defs><clipPath id="b"><path d="M 130.457031 42.75 L 396.707031 42.75 L 396.707031 309 L 130.457031 309 Z M 130.457031 42.75"/></clipPath><clipPath id="c"><path d="M 130.457031 42.75 L 396.707031 42.75 L 396.707031 99 L 130.457031 99 Z M 130.457031 42.75"/></clipPath><clipPath id="f"><path d="M 0.457031 1 L 266.707031 1 L 266.707031 56 L 0.457031 56 Z M 0.457031 1"/></clipPath><clipPath id="e"><path d="M0 0H267V57H0z"/></clipPath><clipPath id="g"><path d="M 1046.957031 500.25 L 1313.207031 500.25 L 1313.207031 766.5 L 1046.957031 766.5 Z M 1046.957031 500.25"/></clipPath><clipPath id="h"><path d="M 1046.957031 710 L 1313.207031 710 L 1313.207031 766.5 L 1046.957031 766.5 Z M 1046.957031 710"/></clipPath><clipPath id="k"><path d="M 0.957031 1 L 267.207031 1 L 267.207031 56 L 0.957031 56 Z M 0.957031 1"/></clipPath><clipPath id="j"><path d="M0 0H268V57H0z"/></clipPath><mask id="d"><g filter="url(#a)"><path fill-opacity=".2" d="M-144 -81H1584V891H-144z"/></g></mask><mask id="i"><g filter="url(#a)"><path fill-opacity=".2" d="M-144 -81H1584V891H-144z"/></g></mask><filter x="0%" y="0%" width="100%" xmlns:xlink="http://www.w3.org/1999/xlink" xlink:type="simple" xlink:actuate="onLoad" height="100%" id="a" xlink:show="other"><feColorMatrix values="0 0 0 0 1 0 0 0 0 1 0 0 0 0 1 0 0 0 1 0" color-interpolation-filters="sRGB"/></filter></defs><path fill="#FFF" d="M-144 -81H1584V891H-144z"/><path fill="#FFF" d="M-144 -81H1584V891H-144z"/><path fill="#FFF" d="M-144 -81H1584V891H-144z"/><g clip-path="url(#b)"><path fill="#0080FF" d="M 131.300781 43.59375 L 130.457031 42.75 L 130.457031 309 L 184.71875 254.738281 L 184.71875 97.851562 L 342.445312 97.851562 L 396.707031 43.59375 Z M 131.300781 43.59375"/></g><g clip-path="url(#c)"><g mask="url(#d)"><g><g clip-path="url(#e)" transform="translate(130 42)"><g clip-path="url(#f)"><path fill="#FFF" d="M 266.707031 1.59375 L 0.457031 1.59375 L 54.71875 55.851562 L 212.445312 55.851562 Z M 266.707031 1.59375"/></g></g></g></g></g><g clip-path="url(#g)"><path fill="#0080FF" d="M 1312.363281 765.65625 L 1313.207031 766.5 L 1313.207031 500.25 L 1258.945312 554.511719 L 1258.945312 711.398438 L 1101.21875 711.398438 L 1046.957031 765.65625 Z M 1312.363281 765.65625"/></g><g clip-path="url(#h)"><g mask="url(#i)"><g><g clip-path="url(#j)" transform="translate(1046 710)"><g clip-path="url(#k)"><path fill="#FFF" d="M 0.957031 55.65625 L 267.207031 55.65625 L 212.945312 1.398438 L 55.21875 1.398438 Z M 0.957031 55.65625"/></g></g></g></g></g></svg>