<svg xmlns="http://www.w3.org/2000/svg" width="375" viewBox="0 0 375 375" height="375" version="1.0">
    <defs>
        <clipPath id="a">
            <path d="M 108.5625 104.425781 L 266.0625 104.425781 L 266.0625 210 L 108.5625 210 Z M 108.5625 104.425781" />
        </clipPath>
        <clipPath id="b">
            <path d="M 153 222 L 222 222 L 222 242.425781 L 153 242.425781 Z M 153 222" />
        </clipPath>
    </defs>
    <path fill="#0080FF" d="M 330.691406 40.765625 C 332.636719 40.765625 334.234375 42.363281 334.234375 44.308594 L 334.234375 330.691406 C 334.234375 332.636719 332.636719 334.234375 330.691406 334.234375 L 44.308594 334.234375 C 42.363281 334.234375 40.765625 332.636719 40.765625 330.691406 L 40.765625 44.308594 C 40.765625 42.363281 42.363281 40.765625 44.308594 40.765625 L 330.691406 40.765625 M 330.691406 37.5 L 44.308594 37.5 C 40.554688 37.5 37.5 40.554688 37.5 44.308594 L 37.5 330.691406 C 37.5 334.445312 40.554688 337.5 44.308594 337.5 L 330.691406 337.5 C 334.445312 337.5 337.5 334.445312 337.5 330.691406 L 337.5 44.308594 C 337.5 40.554688 334.445312 37.5 330.691406 37.5" />
    <g clip-path="url(#a)">
        <path fill="#0080FF" d="M 119.050781 108.785156 C 115.804688 108.785156 113.15625 111.441406 113.15625 114.703125 L 113.15625 198.910156 C 113.15625 202.179688 115.804688 204.828125 119.050781 204.828125 L 255.796875 204.828125 C 259.046875 204.828125 261.691406 202.179688 261.691406 198.910156 L 261.691406 114.703125 C 261.691406 111.441406 259.046875 108.785156 255.796875 108.785156 Z M 255.796875 209.257812 L 119.050781 209.257812 C 113.375 209.257812 108.746094 204.621094 108.746094 198.910156 L 108.746094 114.703125 C 108.746094 109 113.375 104.355469 119.050781 104.355469 L 255.796875 104.355469 C 261.476562 104.355469 266.101562 109 266.101562 114.703125 L 266.101562 198.910156 C 266.101562 204.621094 261.476562 209.257812 255.796875 209.257812" />
    </g>
    <path fill="#0080FF" d="M 263.898438 191.078125 L 110.953125 191.078125 L 110.953125 186.648438 L 263.898438 186.648438 L 263.898438 191.078125" />
    <path fill="#0080FF" d="M 170.476562 224.6875 L 166.140625 223.855469 L 169.433594 206.628906 L 173.757812 207.457031 L 170.476562 224.6875" />
    <path fill="#0080FF" d="M 204.390625 224.6875 L 201.109375 207.457031 L 205.433594 206.628906 L 208.726562 223.855469 L 204.390625 224.6875" />
    <g clip-path="url(#b)">
        <path fill="#0080FF" d="M 163.660156 226.484375 C 160.539062 226.484375 158.007812 229.03125 158.007812 232.164062 C 158.007812 235.292969 160.539062 237.847656 163.660156 237.847656 L 211.1875 237.847656 C 214.308594 237.847656 216.84375 235.292969 216.84375 232.164062 C 216.84375 229.03125 214.308594 226.484375 211.1875 226.484375 Z M 211.1875 242.277344 L 163.660156 242.277344 C 158.109375 242.277344 153.59375 237.742188 153.59375 232.164062 C 153.59375 226.589844 158.109375 222.054688 163.660156 222.054688 L 211.1875 222.054688 C 216.738281 222.054688 221.253906 226.589844 221.253906 232.164062 C 221.253906 237.742188 216.738281 242.277344 211.1875 242.277344" />
    </g>
    <path fill="#0080FF" d="M 173.191406 166.695312 C 172.613281 166.695312 172.035156 166.472656 171.605469 166.019531 C 171.550781 165.960938 162.238281 156.054688 159.429688 153.066406 C 158.1875 151.753906 158.1875 149.675781 159.429688 148.351562 L 171.585938 135.417969 C 172.429688 134.527344 173.820312 134.480469 174.707031 135.332031 C 175.59375 136.167969 175.636719 137.570312 174.800781 138.460938 L 163.28125 150.714844 C 166.617188 154.261719 174.636719 162.792969 174.792969 162.957031 C 175.628906 163.839844 175.59375 165.242188 174.714844 166.082031 C 174.285156 166.496094 173.742188 166.695312 173.191406 166.695312" />
    <path fill="#0080FF" d="M 212.207031 151.390625 L 212.230469 151.390625 Z M 201.660156 166.695312 C 201.109375 166.695312 200.566406 166.496094 200.132812 166.082031 C 199.253906 165.242188 199.222656 163.839844 200.054688 162.957031 C 200.210938 162.792969 208.234375 154.253906 211.570312 150.714844 L 200.046875 138.460938 C 199.210938 137.570312 199.253906 136.167969 200.144531 135.332031 C 201.03125 134.480469 202.417969 134.527344 203.261719 135.417969 L 215.421875 148.351562 C 216.660156 149.675781 216.660156 151.753906 215.421875 153.066406 C 212.609375 156.054688 203.296875 165.960938 203.246094 166.019531 C 202.8125 166.472656 202.238281 166.695312 201.660156 166.695312" />
    <path fill="#0080FF" d="M 183.066406 170.925781 C 182.890625 170.925781 182.710938 170.910156 182.539062 170.867188 C 181.351562 170.582031 180.625 169.378906 180.910156 168.191406 L 189.648438 132.179688 C 189.941406 130.996094 191.128906 130.257812 192.308594 130.554688 C 193.5 130.847656 194.222656 132.042969 193.9375 133.234375 L 185.203125 169.238281 C 184.960938 170.253906 184.054688 170.925781 183.066406 170.925781" />
    <g fill="#0080FF">
        <g>
            <g>
                <path d="M 11.488281 -20.214844 L 1.761719 -20.214844 L 1.761719 0 L 11.488281 0 C 18.054688 0 21.035156 -4.800781 21.035156 -10.152344 C 21.035156 -15.472656 18.054688 -20.214844 11.488281 -20.214844 Z M 10.457031 -3.679688 L 6.382812 -3.679688 L 6.382812 -16.566406 L 10.457031 -16.566406 C 14.558594 -16.566406 16.230469 -14.46875 16.230469 -10.152344 C 16.230469 -5.867188 14.589844 -3.679688 10.457031 -3.679688 Z M 10.457031 -3.679688" transform="translate(70.36 297.7)" />
            </g>
        </g>
    </g>
    <g fill="#0080FF">
        <g>
            <g>
                <path d="M 6.382812 -3.679688 L 6.382812 -8.601562 L 16.71875 -8.601562 L 16.71875 -12.035156 L 6.382812 -12.035156 L 6.382812 -16.566406 L 17.628906 -16.566406 L 17.628906 -20.214844 L 1.761719 -20.214844 L 1.761719 0 L 17.722656 0 L 17.722656 -3.679688 Z M 6.382812 -3.679688" transform="translate(92.547 297.7)" />
            </g>
        </g>
    </g>
    <g fill="#0080FF">
        <g>
            <g>
                <path d="M 16.6875 -20.214844 L 12.1875 -6.960938 C 11.824219 -5.835938 11.519531 -4.742188 11.214844 -3.617188 C 10.941406 -4.742188 10.609375 -5.835938 10.242188 -6.960938 L 5.773438 -20.214844 L 1.003906 -20.214844 L 7.78125 0 L 14.558594 0 L 21.339844 -20.214844 Z M 16.6875 -20.214844" transform="translate(111.786 297.7)" />
            </g>
        </g>
    </g>
    <g fill="#0080FF">
        <g>
            <g>
                <path d="M 6.382812 -3.679688 L 6.382812 -8.601562 L 16.71875 -8.601562 L 16.71875 -12.035156 L 6.382812 -12.035156 L 6.382812 -16.566406 L 17.628906 -16.566406 L 17.628906 -20.214844 L 1.761719 -20.214844 L 1.761719 0 L 17.722656 0 L 17.722656 -3.679688 Z M 6.382812 -3.679688" transform="translate(134.095 297.7)" />
            </g>
        </g>
    </g>
    <g fill="#0080FF">
        <g>
            <g>
                <path d="M 6.414062 -3.679688 L 6.414062 -20.214844 L 1.761719 -20.214844 L 1.761719 0 L 15.867188 0 L 15.867188 -3.679688 Z M 6.414062 -3.679688" transform="translate(153.334 297.7)" />
            </g>
        </g>
    </g>
    <g fill="#0080FF">
        <g>
            <g>
                <path d="M 12.035156 0.515625 C 19.789062 0.515625 22.675781 -4.527344 22.675781 -10.089844 C 22.675781 -15.5625 19.789062 -20.730469 12.035156 -20.730469 C 4.285156 -20.730469 1.367188 -15.59375 1.367188 -10.089844 C 1.367188 -4.5 4.285156 0.515625 12.035156 0.515625 Z M 6.199219 -10.089844 C 6.199219 -14.558594 7.597656 -16.960938 12.035156 -16.960938 C 16.476562 -16.960938 17.871094 -14.558594 17.871094 -10.089844 C 17.871094 -5.683594 16.476562 -3.28125 12.035156 -3.28125 C 7.597656 -3.28125 6.199219 -5.683594 6.199219 -10.089844 Z M 6.199219 -10.089844" transform="translate(169.777 297.7)" />
            </g>
        </g>
    </g>
    <g fill="#0080FF">
        <g>
            <g>
                <path d="M 12.492188 -20.214844 L 1.761719 -20.214844 L 1.761719 0 L 6.414062 0 L 6.414062 -7.050781 L 12.492188 -7.050781 C 17.082031 -7.050781 18.90625 -10 18.90625 -13.738281 C 18.90625 -17.265625 17.082031 -20.214844 12.492188 -20.214844 Z M 11.035156 -10.636719 L 6.414062 -10.636719 L 6.414062 -16.625 L 11.0625 -16.625 C 13.3125 -16.625 14.105469 -15.410156 14.105469 -13.707031 C 14.105469 -11.945312 13.28125 -10.636719 11.035156 -10.636719 Z M 11.035156 -10.636719" transform="translate(193.819 297.7)" />
            </g>
        </g>
    </g>
    <g fill="#0080FF">
        <g>
            <g>
                <path d="M 26.992188 -20.214844 L 19.179688 -20.214844 L 14.4375 -4.558594 L 9.695312 -20.214844 L 1.761719 -20.214844 L 1.761719 0 L 6.351562 0 L 6.351562 -17.265625 L 11.703125 0 L 17.050781 0 L 22.371094 -17.171875 L 22.371094 0 L 26.992188 0 Z M 26.992188 -20.214844" transform="translate(213.636 297.7)" />
            </g>
        </g>
    </g>
    <g fill="#0080FF">
        <g>
            <g>
                <path d="M 6.382812 -3.679688 L 6.382812 -8.601562 L 16.71875 -8.601562 L 16.71875 -12.035156 L 6.382812 -12.035156 L 6.382812 -16.566406 L 17.628906 -16.566406 L 17.628906 -20.214844 L 1.761719 -20.214844 L 1.761719 0 L 17.722656 0 L 17.722656 -3.679688 Z M 6.382812 -3.679688" transform="translate(242.358 297.7)" />
            </g>
        </g>
    </g>
    <g fill="#0080FF">
        <g>
            <g>
                <path d="M 16.898438 -20.214844 L 16.898438 -3.28125 C 16.566406 -4.316406 16.171875 -5.351562 15.804688 -6.199219 L 9.421875 -20.214844 L 1.761719 -20.214844 L 1.761719 0 L 6.199219 0 L 6.199219 -16.898438 C 6.503906 -15.867188 6.898438 -14.832031 7.355469 -13.800781 L 13.679688 0 L 21.339844 0 L 21.339844 -20.214844 Z M 16.898438 -20.214844" transform="translate(261.597 297.7)" />
            </g>
        </g>
    </g>
    <g fill="#0080FF">
        <g>
            <g>
                <path d="M 18.9375 -20.214844 L 1.003906 -20.214844 L 1.003906 -16.566406 L 7.660156 -16.566406 L 7.660156 0 L 12.28125 0 L 12.28125 -16.566406 L 18.9375 -16.566406 Z M 18.9375 -20.214844" transform="translate(284.696 297.7)" />
            </g>
        </g>
    </g>
</svg>