<svg xmlns="http://www.w3.org/2000/svg" width="375" viewBox="0 0 375 375" height="375" version="1.0"><defs><clipPath id="a"><path d="M 96.371094 103.296875 L 217 103.296875 L 217 224 L 96.371094 224 Z M 96.371094 103.296875"/></clipPath><clipPath id="b"><path d="M 201 181 L 262 181 L 262 241.296875 L 201 241.296875 Z M 201 181"/></clipPath><clipPath id="c"><path d="M 219 136 L 265.121094 136 L 265.121094 182 L 219 182 Z M 219 136"/></clipPath></defs><path fill="#0080FF" d="M 330.691406 40.765625 C 332.636719 40.765625 334.234375 42.363281 334.234375 44.308594 L 334.234375 330.691406 C 334.234375 332.636719 332.636719 334.234375 330.691406 334.234375 L 44.308594 334.234375 C 42.363281 334.234375 40.765625 332.636719 40.765625 330.691406 L 40.765625 44.308594 C 40.765625 42.363281 42.363281 40.765625 44.308594 40.765625 L 330.691406 40.765625 M 330.691406 37.5 L 44.308594 37.5 C 40.554688 37.5 37.5 40.554688 37.5 44.308594 L 37.5 330.691406 C 37.5 334.445312 40.554688 337.5 44.308594 337.5 L 330.691406 337.5 C 334.445312 337.5 337.5 334.445312 337.5 330.691406 L 337.5 44.308594 C 337.5 40.554688 334.445312 37.5 330.691406 37.5"/><g clip-path="url(#a)"><path fill="#0080FF" d="M 152.316406 194.058594 C 135.398438 191.832031 123.496094 176.324219 125.722656 159.410156 C 127.953125 142.507812 143.476562 130.609375 160.386719 132.835938 C 177.300781 135.066406 189.210938 150.582031 186.980469 167.484375 C 184.753906 184.390625 169.230469 196.289062 152.316406 194.058594 Z M 215.65625 171.332031 L 216.164062 162.003906 C 216.324219 159.015625 214.03125 156.460938 211.042969 156.300781 L 205.292969 155.996094 C 204.554688 151.144531 203.105469 146.496094 201.039062 142.171875 L 205.640625 138.675781 C 208.027344 136.863281 208.488281 133.46875 206.671875 131.082031 L 201.027344 123.648438 C 199.214844 121.265625 195.808594 120.804688 193.425781 122.617188 L 188.824219 126.105469 C 184.171875 122.058594 178.726562 118.84375 172.699219 116.742188 L 173.449219 111.03125 C 173.84375 108.066406 171.757812 105.339844 168.785156 104.953125 L 159.527344 103.738281 C 156.5625 103.34375 153.832031 105.429688 153.441406 108.394531 L 152.691406 114.105469 C 145.363281 114.640625 138.40625 116.792969 132.21875 120.253906 L 128.445312 115.910156 C 126.480469 113.644531 123.054688 113.398438 120.796875 115.367188 L 113.746094 121.488281 C 111.480469 123.441406 111.242188 126.863281 113.203125 129.128906 L 116.96875 133.46875 C 113.113281 138.519531 110.195312 144.363281 108.5 150.78125 L 102.75 150.46875 C 99.753906 150.3125 97.203125 152.601562 97.042969 155.59375 L 96.542969 164.914062 C 96.378906 167.902344 98.667969 170.457031 101.664062 170.617188 L 107.414062 170.921875 C 108.15625 175.765625 109.605469 180.414062 111.671875 184.730469 L 107.09375 188.214844 C 104.703125 190.027344 104.242188 193.429688 106.054688 195.804688 L 111.710938 203.238281 C 113.515625 205.625 116.917969 206.085938 119.304688 204.273438 L 123.886719 200.789062 C 128.546875 204.851562 133.992188 208.058594 140.027344 210.160156 L 139.277344 215.867188 C 138.882812 218.835938 140.972656 221.554688 143.945312 221.949219 L 153.203125 223.167969 C 156.167969 223.558594 158.894531 221.464844 159.28125 218.503906 L 160.039062 212.789062 C 167.359375 212.25 174.3125 210.09375 180.503906 206.632812 L 184.285156 210.992188 C 186.246094 213.25 189.671875 213.496094 191.9375 211.535156 L 198.988281 205.414062 C 201.25 203.453125 201.488281 200.03125 199.523438 197.765625 L 195.742188 193.414062 C 199.59375 188.371094 202.503906 182.539062 204.199219 176.136719 L 209.957031 176.449219 C 212.945312 176.605469 215.5 174.316406 215.65625 171.332031"/></g><g clip-path="url(#b)"><path fill="#0080FF" d="M 231.261719 226.878906 C 222.707031 226.878906 215.785156 219.957031 215.785156 211.417969 C 215.785156 202.875 222.707031 195.945312 231.261719 195.945312 C 239.804688 195.945312 246.738281 202.875 246.738281 211.417969 C 246.738281 219.957031 239.804688 226.878906 231.261719 226.878906 Z M 261.230469 211.445312 L 260.871094 206.78125 C 260.753906 205.289062 259.445312 204.175781 257.953125 204.285156 L 255.078125 204.507812 C 254.394531 202.148438 253.367188 199.933594 252.058594 197.929688 L 254.117188 195.886719 C 255.179688 194.832031 255.1875 193.109375 254.132812 192.046875 L 250.839844 188.726562 C 249.785156 187.664062 248.0625 187.648438 247 188.710938 L 244.941406 190.746094 C 242.363281 189.039062 239.449219 187.796875 236.320312 187.152344 L 236.320312 184.261719 C 236.320312 182.761719 235.101562 181.542969 233.601562 181.542969 L 228.929688 181.542969 C 227.425781 181.542969 226.207031 182.761719 226.207031 184.261719 L 226.207031 187.144531 C 222.605469 187.886719 219.289062 189.417969 216.445312 191.542969 L 214.28125 189.625 C 213.160156 188.628906 211.445312 188.734375 210.449219 189.855469 L 207.347656 193.359375 C 206.355469 194.484375 206.457031 196.199219 207.578125 197.195312 L 209.734375 199.101562 C 208.152344 201.859375 207.082031 204.957031 206.664062 208.253906 L 203.78125 208.476562 C 202.289062 208.585938 201.175781 209.894531 201.285156 211.386719 L 201.648438 216.058594 C 201.761719 217.550781 203.070312 218.664062 204.5625 218.554688 L 207.445312 218.324219 C 208.128906 220.6875 209.15625 222.898438 210.460938 224.914062 L 208.410156 226.933594 C 207.347656 227.996094 207.34375 229.710938 208.398438 230.78125 L 211.6875 234.101562 C 212.742188 235.160156 214.46875 235.167969 215.53125 234.113281 L 217.582031 232.085938 C 220.160156 233.796875 223.082031 235.035156 226.207031 235.683594 L 226.207031 238.5625 C 226.207031 240.0625 227.425781 241.28125 228.929688 241.28125 L 233.601562 241.28125 C 235.101562 241.28125 236.320312 240.0625 236.320312 238.5625 L 236.320312 235.683594 C 239.917969 234.929688 243.230469 233.410156 246.078125 231.285156 L 248.246094 233.199219 C 249.371094 234.195312 251.085938 234.09375 252.082031 232.972656 L 255.179688 229.464844 C 256.175781 228.34375 256.070312 226.628906 254.949219 225.632812 L 252.789062 223.722656 C 254.363281 220.96875 255.433594 217.878906 255.847656 214.589844 L 258.730469 214.367188 C 260.226562 214.246094 261.347656 212.9375 261.230469 211.445312"/></g><g clip-path="url(#c)"><path fill="#0080FF" d="M 242.273438 169.386719 C 236.460938 169.386719 231.75 164.675781 231.75 158.867188 C 231.75 153.0625 236.460938 148.351562 242.273438 148.351562 C 248.085938 148.351562 252.804688 153.0625 252.804688 158.867188 C 252.804688 164.675781 248.085938 169.386719 242.273438 169.386719 Z M 265.035156 158.890625 L 264.757812 155.355469 C 264.667969 154.21875 263.679688 153.371094 262.542969 153.453125 L 260.359375 153.625 C 259.839844 151.835938 259.066406 150.15625 258.070312 148.625 L 259.632812 147.074219 C 260.441406 146.28125 260.441406 144.972656 259.644531 144.164062 L 257.140625 141.636719 C 256.339844 140.828125 255.03125 140.828125 254.222656 141.628906 L 252.667969 143.175781 C 250.707031 141.875 248.492188 140.941406 246.113281 140.441406 L 246.113281 138.25 C 246.113281 137.113281 245.195312 136.1875 244.058594 136.1875 L 240.503906 136.1875 C 239.359375 136.1875 238.4375 137.113281 238.4375 138.25 L 238.4375 140.441406 C 235.703125 141.007812 233.1875 142.164062 231.023438 143.777344 L 229.390625 142.328125 C 228.535156 141.570312 227.234375 141.652344 226.476562 142.5 L 224.121094 145.160156 C 223.363281 146.011719 223.445312 147.3125 224.292969 148.070312 L 225.933594 149.519531 C 224.730469 151.621094 223.917969 153.96875 223.601562 156.46875 L 221.414062 156.640625 C 220.277344 156.730469 219.433594 157.71875 219.511719 158.855469 L 219.789062 162.398438 C 219.878906 163.527344 220.875 164.378906 222.003906 164.289062 L 224.195312 164.121094 C 224.707031 165.910156 225.488281 167.589844 226.484375 169.117188 L 224.929688 170.65625 C 224.121094 171.457031 224.113281 172.765625 224.914062 173.566406 L 227.417969 176.09375 C 228.214844 176.902344 229.523438 176.910156 230.332031 176.109375 L 231.886719 174.5625 C 233.847656 175.863281 236.0625 176.804688 238.4375 177.296875 L 238.4375 179.488281 C 238.4375 180.625 239.359375 181.542969 240.503906 181.542969 L 244.058594 181.542969 C 245.195312 181.542969 246.113281 180.625 246.113281 179.488281 L 246.113281 177.296875 C 248.851562 176.722656 251.367188 175.566406 253.53125 173.960938 L 255.171875 175.410156 C 256.027344 176.167969 257.328125 176.085938 258.085938 175.238281 L 260.441406 172.578125 C 261.191406 171.726562 261.117188 170.417969 260.261719 169.667969 L 258.621094 168.210938 C 259.816406 166.117188 260.628906 163.777344 260.945312 161.28125 L 263.140625 161.113281 C 264.269531 161.023438 265.121094 160.035156 265.035156 158.890625"/></g><g fill="#0080FF"><g><g><path d="M 1.183594 -6.65625 C 1.335938 -2.980469 3.617188 0.515625 10.273438 0.515625 C 16.597656 0.515625 19.058594 -2.066406 19.058594 -6.046875 C 19.058594 -9.574219 16.992188 -11.519531 12.886719 -11.976562 L 8.664062 -12.492188 C 6.992188 -12.675781 6.292969 -13.554688 6.292969 -14.742188 C 6.292969 -16.324219 7.597656 -17.324219 10.0625 -17.324219 C 12.734375 -17.324219 14.074219 -16.109375 14.316406 -14.226562 L 18.84375 -14.226562 C 18.601562 -17.8125 16.109375 -20.730469 10.0625 -20.730469 C 4.378906 -20.730469 1.640625 -18.117188 1.640625 -14.46875 C 1.640625 -11.125 3.648438 -9.148438 7.234375 -8.722656 L 11.703125 -8.144531 C 13.496094 -7.902344 14.40625 -7.113281 14.40625 -5.59375 C 14.40625 -3.980469 13.40625 -2.917969 10.335938 -2.917969 C 7.144531 -2.917969 5.804688 -4.5 5.683594 -6.65625 Z M 1.183594 -6.65625" transform="translate(155.71 297.7)"/></g></g></g><g fill="#0080FF"><g><g><path d="M 6.382812 -3.679688 L 6.382812 -8.601562 L 16.71875 -8.601562 L 16.71875 -12.035156 L 6.382812 -12.035156 L 6.382812 -16.566406 L 17.628906 -16.566406 L 17.628906 -20.214844 L 1.761719 -20.214844 L 1.761719 0 L 17.722656 0 L 17.722656 -3.679688 Z M 6.382812 -3.679688" transform="translate(176.012 297.7)"/></g></g></g><g fill="#0080FF"><g><g><path d="M 12.035156 0.515625 C 19.789062 0.515625 22.675781 -4.527344 22.675781 -10.089844 C 22.675781 -15.5625 19.789062 -20.730469 12.035156 -20.730469 C 4.285156 -20.730469 1.367188 -15.59375 1.367188 -10.089844 C 1.367188 -4.5 4.285156 0.515625 12.035156 0.515625 Z M 6.199219 -10.089844 C 6.199219 -14.558594 7.597656 -16.960938 12.035156 -16.960938 C 16.476562 -16.960938 17.871094 -14.558594 17.871094 -10.089844 C 17.871094 -5.683594 16.476562 -3.28125 12.035156 -3.28125 C 7.597656 -3.28125 6.199219 -5.683594 6.199219 -10.089844 Z M 6.199219 -10.089844" transform="translate(195.252 297.7)"/></g></g></g></svg>