<svg xmlns="http://www.w3.org/2000/svg" width="375" viewBox="0 0 375 375" height="375" version="1.0"><defs><clipPath id="a"><path d="M 209.28125 141.234375 L 271.207031 141.234375 L 271.207031 203.496094 L 209.28125 203.496094 Z M 209.28125 141.234375"/></clipPath><clipPath id="b"><path d="M 104.132812 179.164062 L 166 179.164062 L 166 241.101562 L 104.132812 241.101562 Z M 104.132812 179.164062"/></clipPath></defs><path fill="#0080FF" d="M 174.554688 115.707031 C 174.445312 119.730469 171.351562 122.824219 167.332031 122.933594 C 163.308594 123.042969 160.210938 119.566406 160.105469 115.707031 C 160 111.679688 163.46875 108.582031 167.332031 108.480469 C 171.351562 108.371094 174.449219 111.84375 174.554688 115.707031 C 174.617188 118.007812 178.191406 118.015625 178.132812 115.707031 C 177.96875 109.707031 173.324219 105.0625 167.332031 104.898438 C 161.339844 104.738281 156.683594 109.953125 156.53125 115.707031 C 156.367188 121.703125 161.578125 126.355469 167.332031 126.511719 C 173.324219 126.671875 177.976562 121.460938 178.132812 115.707031 C 178.191406 113.398438 174.617188 113.402344 174.554688 115.707031"/><path fill="#0080FF" d="M 194.226562 124.160156 C 194.085938 140.972656 178.667969 153.984375 162.042969 151.011719 C 154.234375 149.617188 147.445312 144.710938 143.398438 137.929688 C 139.214844 130.914062 138.652344 122.273438 141.375 114.636719 C 145.773438 102.304688 159.125 95.027344 171.859375 97.304688 C 184.753906 99.609375 194.117188 111.171875 194.226562 124.160156 C 194.246094 126.464844 197.820312 126.464844 197.800781 124.160156 C 197.664062 107.601562 184.464844 94.007812 167.949219 93.308594 C 151.394531 92.609375 137.402344 105.898438 136.167969 122.167969 C 134.90625 138.726562 147.785156 153.089844 163.980469 154.875 C 180.304688 156.671875 195.484375 144.257812 197.539062 128.105469 C 197.703125 126.792969 197.792969 125.480469 197.800781 124.160156 C 197.820312 121.851562 194.246094 121.851562 194.226562 124.160156"/><path fill="#0080FF" d="M 154.664062 141.628906 C 154.664062 138.226562 153.933594 134.085938 157.160156 131.867188 C 158.433594 130.992188 159.855469 130.949219 161.324219 130.949219 C 163.140625 130.949219 164.957031 130.949219 166.773438 130.949219 C 168.5625 130.949219 170.351562 130.949219 172.140625 130.949219 C 173.621094 130.949219 174.980469 130.921875 176.351562 131.632812 C 180.03125 133.539062 179.238281 138.199219 179.238281 141.628906 C 179.238281 143.9375 182.816406 143.9375 182.816406 141.628906 C 182.816406 137.113281 183.273438 132.433594 179.28125 129.3125 C 175.894531 126.664062 171.15625 127.371094 167.128906 127.371094 C 163.160156 127.371094 158.429688 126.664062 154.980469 129.03125 C 150.632812 132.023438 151.085938 137.003906 151.085938 141.628906 C 151.085938 143.9375 154.664062 143.9375 154.664062 141.628906"/><path fill="#0080FF" d="M 247.957031 163.933594 C 247.847656 167.960938 244.757812 171.054688 240.734375 171.164062 C 236.710938 171.269531 233.613281 167.796875 233.507812 163.933594 C 233.402344 159.910156 236.875 156.8125 240.734375 156.710938 C 244.757812 156.601562 247.855469 160.074219 247.957031 163.933594 C 248.019531 166.238281 251.597656 166.246094 251.535156 163.933594 C 251.371094 157.9375 246.726562 153.292969 240.734375 153.128906 C 234.742188 152.96875 230.089844 158.183594 229.933594 163.933594 C 229.769531 169.929688 234.984375 174.585938 240.734375 174.742188 C 246.726562 174.902344 251.378906 169.6875 251.535156 163.933594 C 251.597656 161.625 248.019531 161.632812 247.957031 163.933594"/><g clip-path="url(#a)"><path fill="#0080FF" d="M 267.628906 172.390625 C 267.488281 189.203125 252.070312 202.214844 235.445312 199.242188 C 227.636719 197.847656 220.847656 192.941406 216.804688 186.160156 C 212.617188 179.144531 212.054688 170.503906 214.777344 162.867188 C 219.175781 150.535156 232.527344 143.257812 245.261719 145.535156 C 258.15625 147.839844 267.519531 159.402344 267.628906 172.390625 C 267.648438 174.695312 271.226562 174.695312 271.207031 172.390625 C 271.066406 155.832031 257.871094 142.238281 241.351562 141.539062 C 224.796875 140.839844 210.808594 154.128906 209.570312 170.398438 C 208.308594 186.957031 221.1875 201.320312 237.382812 203.105469 C 253.707031 204.902344 268.886719 192.488281 270.941406 176.332031 C 271.105469 175.019531 271.195312 173.710938 271.207031 172.390625 C 271.226562 170.082031 267.648438 170.082031 267.628906 172.390625"/></g><path fill="#0080FF" d="M 228.066406 189.855469 C 228.066406 186.457031 227.335938 182.316406 230.5625 180.097656 C 231.835938 179.222656 233.257812 179.175781 234.726562 179.175781 C 236.542969 179.175781 238.359375 179.175781 240.175781 179.175781 C 241.964844 179.175781 243.753906 179.175781 245.542969 179.175781 C 247.023438 179.175781 248.382812 179.152344 249.753906 179.863281 C 253.433594 181.769531 252.640625 186.429688 252.640625 189.855469 C 252.640625 192.164062 256.21875 192.164062 256.21875 189.855469 C 256.21875 185.34375 256.675781 180.664062 252.683594 177.542969 C 249.296875 174.894531 244.5625 175.597656 240.53125 175.597656 C 236.5625 175.597656 231.832031 174.894531 228.386719 177.261719 C 224.03125 180.253906 224.488281 185.234375 224.488281 189.855469 C 224.488281 192.164062 228.066406 192.164062 228.066406 189.855469"/><path fill="#0080FF" d="M 142.605469 201.757812 C 142.496094 205.78125 139.402344 208.875 135.378906 208.984375 C 131.359375 209.09375 128.261719 205.621094 128.15625 201.757812 C 128.046875 197.734375 131.519531 194.636719 135.378906 194.53125 C 139.402344 194.421875 142.5 197.894531 142.605469 201.757812 C 142.667969 204.058594 146.242188 204.066406 146.179688 201.757812 C 146.019531 195.761719 141.375 191.113281 135.378906 190.953125 C 129.386719 190.792969 124.734375 196.003906 124.578125 201.757812 C 124.417969 207.753906 129.628906 212.40625 135.378906 212.5625 C 141.371094 212.726562 146.027344 207.511719 146.179688 201.757812 C 146.242188 199.449219 142.667969 199.453125 142.605469 201.757812"/><g clip-path="url(#b)"><path fill="#0080FF" d="M 162.277344 210.210938 C 162.132812 227.023438 146.71875 240.035156 130.09375 237.066406 C 122.285156 235.667969 115.492188 230.761719 111.449219 223.984375 C 107.261719 216.964844 106.703125 208.324219 109.425781 200.6875 C 113.824219 188.359375 127.175781 181.082031 139.90625 183.355469 C 152.800781 185.660156 162.167969 197.222656 162.277344 210.210938 C 162.296875 212.515625 165.871094 212.519531 165.851562 210.210938 C 165.710938 193.65625 152.515625 180.058594 136 179.363281 C 119.445312 178.660156 105.453125 191.953125 104.214844 208.21875 C 102.957031 224.78125 115.835938 239.144531 132.03125 240.925781 C 148.355469 242.722656 163.535156 230.308594 165.585938 214.15625 C 165.753906 212.84375 165.839844 211.535156 165.851562 210.210938 C 165.871094 207.902344 162.296875 207.902344 162.277344 210.210938"/></g><path fill="#0080FF" d="M 122.710938 227.679688 C 122.710938 224.277344 121.980469 220.136719 125.210938 217.917969 C 126.480469 217.042969 127.90625 217 129.371094 217 C 131.191406 217 133.007812 217 134.824219 217 C 136.613281 217 138.402344 217 140.1875 217 C 141.671875 217 143.03125 216.972656 144.402344 217.683594 C 148.078125 219.59375 147.289062 224.25 147.289062 227.679688 C 147.289062 229.988281 150.867188 229.988281 150.867188 227.679688 C 150.867188 223.167969 151.324219 218.484375 147.332031 215.367188 C 143.945312 212.714844 139.207031 213.421875 135.175781 213.421875 C 131.210938 213.421875 126.480469 212.714844 123.03125 215.085938 C 118.679688 218.074219 119.136719 223.054688 119.136719 227.679688 C 119.136719 229.988281 122.710938 229.988281 122.710938 227.679688"/><path fill="#0080FF" d="M 189.28125 143.171875 C 197.46875 148.84375 205.65625 154.511719 213.839844 160.183594 C 215.742188 161.5 217.527344 158.394531 215.644531 157.09375 C 207.460938 151.421875 199.273438 145.753906 191.089844 140.082031 C 189.1875 138.765625 187.402344 141.867188 189.28125 143.171875"/><path fill="#0080FF" d="M 139.816406 182.035156 C 145.019531 171.703125 150.21875 161.371094 155.421875 151.035156 C 156.457031 148.980469 153.371094 147.167969 152.332031 149.230469 C 147.132812 159.5625 141.929688 169.898438 136.730469 180.230469 C 135.695312 182.285156 138.78125 184.097656 139.816406 182.035156"/><g fill="#0080FF"><g><g><path d="M 1.183594 -6.65625 C 1.335938 -2.980469 3.617188 0.515625 10.273438 0.515625 C 16.597656 0.515625 19.058594 -2.066406 19.058594 -6.046875 C 19.058594 -9.574219 16.992188 -11.519531 12.886719 -11.976562 L 8.664062 -12.492188 C 6.992188 -12.675781 6.292969 -13.554688 6.292969 -14.742188 C 6.292969 -16.324219 7.597656 -17.324219 10.0625 -17.324219 C 12.734375 -17.324219 14.074219 -16.109375 14.316406 -14.226562 L 18.84375 -14.226562 C 18.601562 -17.8125 16.109375 -20.730469 10.0625 -20.730469 C 4.378906 -20.730469 1.640625 -18.117188 1.640625 -14.46875 C 1.640625 -11.125 3.648438 -9.148438 7.234375 -8.722656 L 11.703125 -8.144531 C 13.496094 -7.902344 14.40625 -7.113281 14.40625 -5.59375 C 14.40625 -3.980469 13.40625 -2.917969 10.335938 -2.917969 C 7.144531 -2.917969 5.804688 -4.5 5.683594 -6.65625 Z M 1.183594 -6.65625" transform="translate(67.733 297.7)"/></g></g></g><g fill="#0080FF"><g><g><path d="M 12.035156 0.515625 C 19.789062 0.515625 22.675781 -4.527344 22.675781 -10.089844 C 22.675781 -15.5625 19.789062 -20.730469 12.035156 -20.730469 C 4.285156 -20.730469 1.367188 -15.59375 1.367188 -10.089844 C 1.367188 -4.5 4.285156 0.515625 12.035156 0.515625 Z M 6.199219 -10.089844 C 6.199219 -14.558594 7.597656 -16.960938 12.035156 -16.960938 C 16.476562 -16.960938 17.871094 -14.558594 17.871094 -10.089844 C 17.871094 -5.683594 16.476562 -3.28125 12.035156 -3.28125 C 7.597656 -3.28125 6.199219 -5.683594 6.199219 -10.089844 Z M 6.199219 -10.089844" transform="translate(88.036 297.7)"/></g></g></g><g fill="#0080FF"><g><g><path d="M 11.945312 0.515625 C 19.089844 0.515625 21.886719 -2.339844 22.3125 -8.175781 L 17.539062 -8.175781 C 17.296875 -5.015625 15.777344 -3.28125 11.886719 -3.28125 C 7.84375 -3.28125 6.199219 -5.625 6.199219 -10.089844 C 6.199219 -14.621094 7.964844 -16.960938 12.035156 -16.960938 C 15.777344 -16.960938 17.203125 -15.257812 17.476562 -12.28125 L 22.21875 -12.28125 C 21.761719 -17.8125 18.9375 -20.730469 11.976562 -20.730469 C 4.378906 -20.730469 1.367188 -15.683594 1.367188 -10.089844 C 1.367188 -4.40625 4.347656 0.515625 11.945312 0.515625 Z M 11.945312 0.515625" transform="translate(112.077 297.7)"/></g></g></g><g fill="#0080FF"><g><g><path d="M 13.859375 -16.566406 L 13.859375 -20.214844 L 1.761719 -20.214844 L 1.761719 -16.566406 L 5.5 -16.566406 L 5.5 -3.679688 L 1.761719 -3.679688 L 1.761719 0 L 13.859375 0 L 13.859375 -3.679688 L 10.121094 -3.679688 L 10.121094 -16.566406 Z M 13.859375 -16.566406" transform="translate(135.602 297.7)"/></g></g></g><g fill="#0080FF"><g><g><path d="M 17.539062 0 L 22.1875 0 L 15.078125 -20.214844 L 8.023438 -20.214844 L 0.910156 0 L 5.5625 0 L 7.019531 -4.132812 L 16.078125 -4.132812 Z M 8.269531 -7.691406 L 11.550781 -17.023438 L 14.832031 -7.691406 Z M 8.269531 -7.691406" transform="translate(151.224 297.7)"/></g></g></g><g fill="#0080FF"><g><g><path d="M 6.414062 -3.679688 L 6.414062 -20.214844 L 1.761719 -20.214844 L 1.761719 0 L 15.867188 0 L 15.867188 -3.679688 Z M 6.414062 -3.679688" transform="translate(174.293 297.7)"/></g></g></g><g fill="#0080FF"><g><g><path d="M 26.992188 -20.214844 L 19.179688 -20.214844 L 14.4375 -4.558594 L 9.695312 -20.214844 L 1.761719 -20.214844 L 1.761719 0 L 6.351562 0 L 6.351562 -17.265625 L 11.703125 0 L 17.050781 0 L 22.371094 -17.171875 L 22.371094 0 L 26.992188 0 Z M 26.992188 -20.214844" transform="translate(198.426 297.7)"/></g></g></g><g fill="#0080FF"><g><g><path d="M 6.382812 -3.679688 L 6.382812 -8.601562 L 16.71875 -8.601562 L 16.71875 -12.035156 L 6.382812 -12.035156 L 6.382812 -16.566406 L 17.628906 -16.566406 L 17.628906 -20.214844 L 1.761719 -20.214844 L 1.761719 0 L 17.722656 0 L 17.722656 -3.679688 Z M 6.382812 -3.679688" transform="translate(227.148 297.7)"/></g></g></g><g fill="#0080FF"><g><g><path d="M 11.488281 -20.214844 L 1.761719 -20.214844 L 1.761719 0 L 11.488281 0 C 18.054688 0 21.035156 -4.800781 21.035156 -10.152344 C 21.035156 -15.472656 18.054688 -20.214844 11.488281 -20.214844 Z M 10.457031 -3.679688 L 6.382812 -3.679688 L 6.382812 -16.566406 L 10.457031 -16.566406 C 14.558594 -16.566406 16.230469 -14.46875 16.230469 -10.152344 C 16.230469 -5.867188 14.589844 -3.679688 10.457031 -3.679688 Z M 10.457031 -3.679688" transform="translate(246.387 297.7)"/></g></g></g><g fill="#0080FF"><g><g><path d="M 13.859375 -16.566406 L 13.859375 -20.214844 L 1.761719 -20.214844 L 1.761719 -16.566406 L 5.5 -16.566406 L 5.5 -3.679688 L 1.761719 -3.679688 L 1.761719 0 L 13.859375 0 L 13.859375 -3.679688 L 10.121094 -3.679688 L 10.121094 -16.566406 Z M 13.859375 -16.566406" transform="translate(268.575 297.7)"/></g></g></g><g fill="#0080FF"><g><g><path d="M 17.539062 0 L 22.1875 0 L 15.078125 -20.214844 L 8.023438 -20.214844 L 0.910156 0 L 5.5625 0 L 7.019531 -4.132812 L 16.078125 -4.132812 Z M 8.269531 -7.691406 L 11.550781 -17.023438 L 14.832031 -7.691406 Z M 8.269531 -7.691406" transform="translate(284.197 297.7)"/></g></g></g><path fill="#0080FF" d="M 330.691406 40.765625 C 332.636719 40.765625 334.234375 42.363281 334.234375 44.308594 L 334.234375 330.691406 C 334.234375 332.636719 332.636719 334.234375 330.691406 334.234375 L 44.308594 334.234375 C 42.363281 334.234375 40.765625 332.636719 40.765625 330.691406 L 40.765625 44.308594 C 40.765625 42.363281 42.363281 40.765625 44.308594 40.765625 L 330.691406 40.765625 M 330.691406 37.5 L 44.308594 37.5 C 40.554688 37.5 37.5 40.554688 37.5 44.308594 L 37.5 330.691406 C 37.5 334.445312 40.554688 337.5 44.308594 337.5 L 330.691406 337.5 C 334.445312 337.5 337.5 334.445312 337.5 330.691406 L 337.5 44.308594 C 337.5 40.554688 334.445312 37.5 330.691406 37.5"/></svg>