<svg xmlns="http://www.w3.org/2000/svg" width="375" viewBox="0 0 375 375" height="375" version="1.0"><defs><clipPath id="a"><path d="M 144 157.207031 L 231 157.207031 L 231 228.457031 L 144 228.457031 Z M 144 157.207031"/></clipPath></defs><path fill="#0080FF" d="M 317.289062 336.75 L 56.960938 336.75 C 46.238281 336.75 37.5 328.011719 37.5 317.289062 L 37.5 56.960938 C 37.5 46.238281 46.238281 37.5 56.960938 37.5 L 317.289062 37.5 C 328.011719 37.5 336.75 46.238281 336.75 56.960938 L 336.75 317.289062 C 336.75 328.011719 328.011719 336.75 317.289062 336.75"/><g clip-path="url(#a)"><path fill="#FFF" d="M 189.019531 219.550781 L 189.019531 225.488281 L 214.394531 225.488281 C 215.234375 225.488281 215.917969 226.183594 215.917969 226.972656 C 215.917969 227.792969 215.234375 228.457031 214.394531 228.457031 L 160.660156 228.457031 C 159.816406 228.457031 159.132812 227.761719 159.132812 226.972656 C 159.132812 226.152344 159.816406 225.488281 160.660156 225.488281 L 186.03125 225.488281 L 186.03125 219.550781 L 148.703125 219.550781 C 146.214844 219.550781 144.1875 217.542969 144.1875 215.113281 L 144.1875 161.644531 C 144.1875 159.1875 146.183594 157.207031 148.703125 157.207031 L 226.347656 157.207031 C 228.839844 157.207031 230.863281 159.21875 230.863281 161.644531 L 230.863281 215.113281 C 230.863281 217.570312 228.871094 219.550781 226.347656 219.550781 Z M 151.644531 163.144531 C 150.835938 163.144531 150.167969 163.792969 150.167969 164.597656 L 150.167969 212.160156 C 150.167969 212.980469 150.835938 213.613281 151.644531 213.613281 L 223.40625 213.613281 C 224.214844 213.613281 224.886719 212.964844 224.886719 212.160156 L 224.886719 164.597656 C 224.886719 163.777344 224.214844 163.144531 223.40625 163.144531 Z M 151.644531 163.144531" fill-rule="evenodd"/></g><path fill="#FFF" d="M 277.867188 293.410156 L 96.234375 293.410156 C 92.972656 293.410156 90.316406 290.761719 90.316406 287.511719 L 90.316406 254.304688 C 90.316406 251.054688 92.972656 248.410156 96.234375 248.410156 L 277.867188 248.410156 C 281.125 248.410156 283.78125 251.054688 283.78125 254.304688 L 283.78125 287.511719 C 283.78125 290.761719 281.125 293.410156 277.867188 293.410156"/><g fill="#0080FF"><g><g><path d="M 20.320312 -9.28125 C 20.320312 -12.878906 18.519531 -14.960938 13.960938 -15.480469 L 9.558594 -16 C 7.558594 -16.238281 7.039062 -17.078125 7.039062 -18.039062 C 7.039062 -19.320312 8.160156 -20.277344 10.71875 -20.277344 C 13.238281 -20.277344 14.359375 -19.160156 14.558594 -17.519531 L 20.039062 -17.519531 C 19.757812 -21.039062 17.398438 -23.117188 13.679688 -23.757812 L 13.679688 -28 L 7.960938 -28 L 7.960938 -23.796875 C 4.160156 -23.160156 1.558594 -21.117188 1.558594 -17.480469 C 1.558594 -14.160156 3.601562 -12.121094 7.359375 -11.679688 L 11.839844 -11.078125 C 14.078125 -10.800781 14.640625 -9.917969 14.640625 -8.71875 C 14.640625 -7.320312 13.640625 -6.441406 10.917969 -6.441406 C 7.960938 -6.441406 6.597656 -7.960938 6.441406 -9.878906 L 1.039062 -9.878906 C 1.160156 -6.597656 3.039062 -3.71875 7.960938 -2.917969 L 7.960938 1.398438 L 13.679688 1.398438 L 13.679688 -2.878906 C 18.519531 -3.558594 20.320312 -5.960938 20.320312 -9.28125 Z M 20.320312 -9.28125" transform="translate(95.508 284.42)"/></g></g></g><g fill="#0080FF"><g><g><path d="M 2.519531 0 L 25.597656 0 L 25.597656 -4.757812 L 10.71875 -4.757812 L 16.839844 -9.078125 C 22.917969 -12.960938 25.078125 -15.917969 25.078125 -19.480469 C 25.078125 -23.679688 22.519531 -27.277344 14.71875 -27.277344 C 5.441406 -27.277344 2.359375 -21.480469 2.238281 -15.960938 L 8.398438 -15.960938 C 8.480469 -19.679688 9.960938 -22.636719 14.519531 -22.636719 C 17.640625 -22.636719 18.878906 -21 18.878906 -19.039062 C 18.878906 -17.320312 18.160156 -15.960938 16.039062 -14.4375 L 2.519531 -4.757812 Z M 2.519531 0" transform="translate(117.026 284.42)"/></g></g></g><g fill="#0080FF"><g><g><path d="M 15.519531 -17.558594 C 11.917969 -17.558594 9.597656 -16.558594 8.121094 -15.117188 L 8.597656 -21.839844 L 23.796875 -21.839844 L 23.796875 -26.597656 L 3.679688 -26.597656 L 2.679688 -11.199219 L 8.558594 -11.199219 C 9.519531 -12.558594 11.160156 -13.757812 13.917969 -13.757812 C 17.117188 -13.757812 18.878906 -12.121094 18.878906 -8.839844 C 18.878906 -5.640625 17.199219 -3.960938 13.398438 -3.960938 C 9.839844 -3.960938 8.398438 -5.640625 8.160156 -7.558594 L 1.800781 -7.558594 C 2 -3.078125 5.320312 0.679688 13.078125 0.679688 C 21.238281 0.679688 25.039062 -3.039062 25.039062 -8.839844 C 25.039062 -14.757812 21 -17.558594 15.519531 -17.558594 Z M 15.519531 -17.558594" transform="translate(144.623 284.42)"/></g></g></g><g fill="#0080FF"><g><g><path d="M 14.398438 0.679688 C 23.796875 0.679688 27.316406 -5.960938 27.316406 -13.277344 C 27.316406 -20.480469 23.796875 -27.277344 14.398438 -27.277344 C 5.039062 -27.277344 1.519531 -20.519531 1.519531 -13.277344 C 1.519531 -5.917969 5.039062 0.679688 14.398438 0.679688 Z M 7.839844 -13.277344 C 7.839844 -19.160156 9.359375 -22.320312 14.398438 -22.320312 C 19.480469 -22.320312 21 -19.160156 21 -13.277344 C 21 -7.480469 19.480469 -4.320312 14.398438 -4.320312 C 9.359375 -4.320312 7.839844 -7.480469 7.839844 -13.277344 Z M 7.839844 -13.277344" transform="translate(171.22 284.42)"/></g></g></g><g fill="#0080FF"><g><g><path d="M 0.398438 0 L 5.800781 0 L 15.679688 -26.597656 L 10.28125 -26.597656 Z M 0.398438 0" transform="translate(200.057 284.42)"/></g></g></g><g fill="#0080FF"><g><g><path d="M 28.839844 -20.640625 C 25.078125 -20.640625 22.878906 -18.757812 21.679688 -16 C 20.796875 -18.957031 18.640625 -20.640625 15.078125 -20.640625 C 11.597656 -20.640625 9.4375 -18.917969 8.238281 -16.359375 L 8.238281 -20 L 2.320312 -20 L 2.320312 0 L 8.238281 0 L 8.238281 -9.078125 C 8.238281 -13.839844 9.757812 -15.839844 12.757812 -15.839844 C 15.160156 -15.839844 16.359375 -14.4375 16.359375 -11.4375 L 16.359375 0 L 22.160156 0 L 22.160156 -9.078125 C 22.160156 -13.839844 23.679688 -15.839844 26.679688 -15.839844 C 29.078125 -15.839844 30.277344 -14.4375 30.277344 -11.4375 L 30.277344 0 L 36.199219 0 L 36.199219 -12.277344 C 36.199219 -17.519531 33.917969 -20.640625 28.839844 -20.640625 Z M 28.839844 -20.640625" transform="translate(216.136 284.42)"/></g></g></g><g fill="#0080FF"><g><g><path d="M 12.558594 0.640625 C 20.558594 0.640625 23.636719 -4.480469 23.636719 -10.039062 C 23.636719 -15.519531 20.558594 -20.640625 12.558594 -20.640625 C 4.601562 -20.640625 1.480469 -15.558594 1.480469 -10.039062 C 1.480469 -4.441406 4.601562 0.640625 12.558594 0.640625 Z M 7.441406 -10 C 7.441406 -14.4375 8.960938 -16 12.558594 -16 C 16.199219 -16 17.71875 -14.4375 17.71875 -10 C 17.71875 -5.558594 16.199219 -4 12.558594 -4 C 8.960938 -4 7.441406 -5.558594 7.441406 -10 Z M 7.441406 -10" transform="translate(254.372 284.42)"/></g></g></g><g fill="#FFF"><g><g><path d="M 26.933594 -20.214844 L 23.679688 -2.707031 L 19.878906 -20.214844 L 12.917969 -20.214844 L 9.121094 -2.707031 L 5.835938 -20.214844 L 1.308594 -20.214844 L 5.078125 0 L 12.917969 0 L 16.382812 -16.628906 L 19.847656 0 L 27.691406 0 L 31.492188 -20.214844 Z M 26.933594 -20.214844" transform="translate(66.516 93.71)"/></g></g></g><g fill="#FFF"><g><g><path d="M 6.382812 -3.679688 L 6.382812 -8.601562 L 16.71875 -8.601562 L 16.71875 -12.039062 L 6.382812 -12.039062 L 6.382812 -16.566406 L 17.628906 -16.566406 L 17.628906 -20.214844 L 1.761719 -20.214844 L 1.761719 0 L 17.722656 0 L 17.722656 -3.679688 Z M 6.382812 -3.679688" transform="translate(99.273 93.71)"/></g></g></g><g fill="#FFF"><g><g><path d="M 14.925781 -10.425781 C 17.234375 -10.914062 19.089844 -12.25 19.089844 -15.230469 C 19.089844 -17.964844 17.355469 -20.214844 13.039062 -20.214844 L 1.761719 -20.214844 L 1.761719 0 L 12.828125 0 C 17.144531 0 19.363281 -2.097656 19.363281 -5.5 C 19.363281 -8.722656 17.449219 -10.03125 14.925781 -10.425781 Z M 11.671875 -16.71875 C 13.585938 -16.71875 14.257812 -15.867188 14.257812 -14.316406 C 14.257812 -12.859375 13.527344 -11.886719 11.519531 -11.886719 L 6.382812 -11.886719 L 6.382812 -16.71875 Z M 11.792969 -3.527344 L 6.382812 -3.527344 L 6.382812 -8.785156 L 11.519531 -8.785156 C 13.738281 -8.785156 14.558594 -7.75 14.558594 -6.140625 C 14.558594 -4.652344 13.859375 -3.527344 11.792969 -3.527344 Z M 11.792969 -3.527344" transform="translate(118.507 93.71)"/></g></g></g><g fill="#FFF"><g><g><path d="M 26.992188 -20.214844 L 19.179688 -20.214844 L 14.4375 -4.558594 L 9.695312 -20.214844 L 1.761719 -20.214844 L 1.761719 0 L 6.351562 0 L 6.351562 -17.265625 L 11.703125 0 L 17.054688 0 L 22.371094 -17.175781 L 22.371094 0 L 26.992188 0 Z M 26.992188 -20.214844" transform="translate(146.767 93.71)"/></g></g></g><g fill="#FFF"><g><g><path d="M 17.539062 0 L 22.191406 0 L 15.078125 -20.214844 L 8.023438 -20.214844 L 0.910156 0 L 5.5625 0 L 7.023438 -4.132812 L 16.082031 -4.132812 Z M 8.269531 -7.691406 L 11.550781 -17.023438 L 14.832031 -7.691406 Z M 8.269531 -7.691406" transform="translate(175.482 93.71)"/></g></g></g><g fill="#FFF"><g><g><path d="M 16.902344 -20.214844 L 16.902344 -3.28125 C 16.566406 -4.316406 16.171875 -5.351562 15.808594 -6.199219 L 9.421875 -20.214844 L 1.761719 -20.214844 L 1.761719 0 L 6.199219 0 L 6.199219 -16.902344 C 6.503906 -15.867188 6.898438 -14.832031 7.355469 -13.800781 L 13.679688 0 L 21.339844 0 L 21.339844 -20.214844 Z M 16.902344 -20.214844" transform="translate(198.546 93.71)"/></g></g></g><g fill="#FFF"><g><g><path d="M 17.539062 0 L 22.191406 0 L 15.078125 -20.214844 L 8.023438 -20.214844 L 0.910156 0 L 5.5625 0 L 7.023438 -4.132812 L 16.082031 -4.132812 Z M 8.269531 -7.691406 L 11.550781 -17.023438 L 14.832031 -7.691406 Z M 8.269531 -7.691406" transform="translate(221.64 93.71)"/></g></g></g><g fill="#FFF"><g><g><path d="M 11.003906 0.515625 C 15.289062 0.515625 17.386719 -1.488281 18.207031 -3.890625 L 18.207031 0 L 22.160156 0 L 22.160156 -10.761719 L 10.546875 -10.761719 L 10.546875 -7.75 L 17.753906 -7.75 C 17.386719 -5.226562 16.019531 -3.132812 12.007812 -3.132812 C 7.933594 -3.132812 6.199219 -5.53125 6.199219 -10.09375 C 6.199219 -14.894531 8.175781 -17.113281 12.21875 -17.113281 C 15.59375 -17.113281 17.234375 -15.683594 17.507812 -13.375 L 22.191406 -13.375 C 21.824219 -17.660156 19 -20.730469 12.25 -20.730469 C 4.621094 -20.730469 1.367188 -16.019531 1.367188 -10.121094 C 1.367188 -4.253906 4.347656 0.515625 11.003906 0.515625 Z M 11.003906 0.515625" transform="translate(244.703 93.71)"/></g></g></g><g fill="#FFF"><g><g><path d="M 6.382812 -3.679688 L 6.382812 -8.601562 L 16.71875 -8.601562 L 16.71875 -12.039062 L 6.382812 -12.039062 L 6.382812 -16.566406 L 17.628906 -16.566406 L 17.628906 -20.214844 L 1.761719 -20.214844 L 1.761719 0 L 17.722656 0 L 17.722656 -3.679688 Z M 6.382812 -3.679688" transform="translate(268.74 93.71)"/></g></g></g><g fill="#FFF"><g><g><path d="M 18.574219 -4.925781 C 18.574219 -7.84375 16.960938 -8.875 14.894531 -9.394531 C 17.296875 -9.910156 19.121094 -11.824219 19.121094 -14.683594 C 19.121094 -17.964844 16.902344 -20.214844 12.433594 -20.214844 L 1.761719 -20.214844 L 1.761719 0 L 6.414062 0 L 6.414062 -7.8125 L 10.578125 -7.8125 C 12.585938 -7.8125 13.953125 -6.839844 13.953125 -4.558594 L 13.953125 -3.496094 C 13.953125 -1.824219 14.105469 -0.730469 14.347656 0 L 18.96875 0 C 18.753906 -0.972656 18.574219 -1.882812 18.574219 -3.554688 Z M 11.398438 -11.125 L 6.414062 -11.125 L 6.414062 -16.628906 L 11.398438 -16.628906 C 13.40625 -16.628906 14.285156 -15.714844 14.285156 -14.011719 C 14.285156 -12.128906 13.496094 -11.125 11.398438 -11.125 Z M 11.398438 -11.125" transform="translate(287.974 93.71)"/></g></g></g><g fill="#FFF"><g><g><path d="M 17.539062 0 L 22.191406 0 L 15.078125 -20.214844 L 8.023438 -20.214844 L 0.910156 0 L 5.5625 0 L 7.023438 -4.132812 L 16.082031 -4.132812 Z M 8.269531 -7.691406 L 11.550781 -17.023438 L 14.832031 -7.691406 Z M 8.269531 -7.691406" transform="translate(123 135.71)"/></g></g></g><g fill="#FFF"><g><g><path d="M 11.492188 -20.214844 L 1.761719 -20.214844 L 1.761719 0 L 11.492188 0 C 18.054688 0 21.035156 -4.804688 21.035156 -10.152344 C 21.035156 -15.472656 18.054688 -20.214844 11.492188 -20.214844 Z M 10.457031 -3.679688 L 6.382812 -3.679688 L 6.382812 -16.566406 L 10.457031 -16.566406 C 14.558594 -16.566406 16.230469 -14.46875 16.230469 -10.152344 C 16.230469 -5.867188 14.589844 -3.679688 10.457031 -3.679688 Z M 10.457031 -3.679688" transform="translate(146.064 135.71)"/></g></g></g><g fill="#FFF"><g><g><path d="M 11.492188 -20.214844 L 1.761719 -20.214844 L 1.761719 0 L 11.492188 0 C 18.054688 0 21.035156 -4.804688 21.035156 -10.152344 C 21.035156 -15.472656 18.054688 -20.214844 11.492188 -20.214844 Z M 10.457031 -3.679688 L 6.382812 -3.679688 L 6.382812 -16.566406 L 10.457031 -16.566406 C 14.558594 -16.566406 16.230469 -14.46875 16.230469 -10.152344 C 16.230469 -5.867188 14.589844 -3.679688 10.457031 -3.679688 Z M 10.457031 -3.679688" transform="translate(168.246 135.71)"/></g></g></g><g fill="#FFF"><g><g><path d="M 0.851562 -9.363281 L 0.851562 -6.292969 L 13.617188 -6.292969 L 13.617188 -9.363281 Z M 0.851562 -9.363281" transform="translate(190.428 135.71)"/></g></g></g><g fill="#FFF"><g><g><path d="M 12.039062 0.515625 C 19.789062 0.515625 22.675781 -4.527344 22.675781 -10.09375 C 22.675781 -15.5625 19.789062 -20.730469 12.039062 -20.730469 C 4.285156 -20.730469 1.367188 -15.59375 1.367188 -10.09375 C 1.367188 -4.5 4.285156 0.515625 12.039062 0.515625 Z M 6.199219 -10.09375 C 6.199219 -14.558594 7.597656 -16.960938 12.039062 -16.960938 C 16.476562 -16.960938 17.875 -14.558594 17.875 -10.09375 C 17.875 -5.683594 16.476562 -3.28125 12.039062 -3.28125 C 7.597656 -3.28125 6.199219 -5.683594 6.199219 -10.09375 Z M 6.199219 -10.09375" transform="translate(204.862 135.71)"/></g></g></g><g fill="#FFF"><g><g><path d="M 16.902344 -20.214844 L 16.902344 -3.28125 C 16.566406 -4.316406 16.171875 -5.351562 15.808594 -6.199219 L 9.421875 -20.214844 L 1.761719 -20.214844 L 1.761719 0 L 6.199219 0 L 6.199219 -16.902344 C 6.503906 -15.867188 6.898438 -14.832031 7.355469 -13.800781 L 13.679688 0 L 21.339844 0 L 21.339844 -20.214844 Z M 16.902344 -20.214844" transform="translate(228.898 135.71)"/></g></g></g><g fill="#FFF"><g><g><path d="M 0.449219 -8.191406 L 2.445312 -7.273438 L 0.480469 -6.40625 L 0.988281 -5.503906 L 2.761719 -6.78125 L 2.535156 -4.621094 L 3.554688 -4.621094 L 3.328125 -6.78125 L 5.101562 -5.503906 L 5.625 -6.40625 L 3.644531 -7.320312 L 5.609375 -8.191406 L 5.101562 -9.074219 L 3.328125 -7.816406 L 3.554688 -9.976562 L 2.535156 -9.976562 L 2.761719 -7.816406 L 0.988281 -9.074219 Z M 0.449219 -8.191406" transform="translate(154.908 309.97)"/></g></g></g><g fill="#FFF"><g><g><path d="M 8.65625 0 L 10.949219 0 L 7.441406 -9.976562 L 3.960938 -9.976562 L 0.449219 0 L 2.746094 0 L 3.464844 -2.039062 L 7.933594 -2.039062 Z M 4.078125 -3.796875 L 5.699219 -8.398438 L 7.320312 -3.796875 Z M 4.078125 -3.796875" transform="translate(160.983 309.97)"/></g></g></g><g fill="#FFF"><g><g><path d="M 8.339844 -9.976562 L 8.339844 -1.621094 C 8.175781 -2.128906 7.980469 -2.640625 7.800781 -3.058594 L 4.648438 -9.976562 L 0.871094 -9.976562 L 0.871094 0 L 3.058594 0 L 3.058594 -8.339844 C 3.210938 -7.828125 3.40625 -7.320312 3.628906 -6.808594 L 6.75 0 L 10.53125 0 L 10.53125 -9.976562 Z M 8.339844 -9.976562" transform="translate(172.368 309.97)"/></g></g></g><g fill="#FFF"><g><g><path d="M 5.671875 -9.976562 L 0.871094 -9.976562 L 0.871094 0 L 5.671875 0 C 8.910156 0 10.378906 -2.371094 10.378906 -5.011719 C 10.378906 -7.636719 8.910156 -9.976562 5.671875 -9.976562 Z M 5.160156 -1.816406 L 3.148438 -1.816406 L 3.148438 -8.175781 L 5.160156 -8.175781 C 7.183594 -8.175781 8.011719 -7.140625 8.011719 -5.011719 C 8.011719 -2.894531 7.199219 -1.816406 5.160156 -1.816406 Z M 5.160156 -1.816406" transform="translate(183.768 309.97)"/></g></g></g><g fill="#FFF"><g><g><path d="M 0.824219 -3.734375 C 0.824219 -1.125 2.324219 0.238281 5.308594 0.238281 C 8.296875 0.238281 9.78125 -1.140625 9.78125 -3.734375 L 9.78125 -9.976562 L 7.515625 -9.976562 L 7.515625 -4.050781 C 7.515625 -2.113281 6.78125 -1.621094 5.308594 -1.621094 C 3.839844 -1.621094 3.105469 -2.113281 3.105469 -4.050781 L 3.105469 -9.976562 L 0.824219 -9.976562 Z M 0.824219 -3.734375" transform="translate(198.513 309.97)"/></g></g></g><g fill="#FFF"><g><g><path d="M 6.164062 -9.976562 L 0.871094 -9.976562 L 0.871094 0 L 3.164062 0 L 3.164062 -3.480469 L 6.164062 -3.480469 C 8.429688 -3.480469 9.328125 -4.933594 9.328125 -6.78125 C 9.328125 -8.519531 8.429688 -9.976562 6.164062 -9.976562 Z M 5.445312 -5.25 L 3.164062 -5.25 L 3.164062 -8.203125 L 5.460938 -8.203125 C 6.570312 -8.203125 6.960938 -7.605469 6.960938 -6.765625 C 6.960938 -5.894531 6.554688 -5.25 5.445312 -5.25 Z M 5.445312 -5.25" transform="translate(209.118 309.97)"/></g></g></g></svg>