<svg xmlns="http://www.w3.org/2000/svg" width="375" viewBox="0 0 375 375" height="375" version="1.0"><defs><clipPath id="a"><path d="M 198.6875 178.464844 L 231.179688 178.464844 L 231.179688 211.167969 L 198.6875 211.167969 Z M 198.6875 178.464844"/></clipPath><clipPath id="b"><path d="M 143.511719 198.386719 L 175.980469 198.386719 L 175.980469 230.917969 L 143.511719 230.917969 Z M 143.511719 198.386719"/></clipPath></defs><path fill="#0080FF" d="M 317.289062 336.75 L 56.960938 336.75 C 46.238281 336.75 37.5 328.011719 37.5 317.289062 L 37.5 56.960938 C 37.5 46.238281 46.238281 37.5 56.960938 37.5 L 317.289062 37.5 C 328.011719 37.5 336.75 46.238281 336.75 56.960938 L 336.75 317.289062 C 336.75 328.011719 328.011719 336.75 317.289062 336.75"/><path fill="#FFF" d="M 277.867188 293.410156 L 96.234375 293.410156 C 92.972656 293.410156 90.316406 290.761719 90.316406 287.511719 L 90.316406 254.304688 C 90.316406 251.054688 92.972656 248.410156 96.234375 248.410156 L 277.867188 248.410156 C 281.125 248.410156 283.78125 251.054688 283.78125 254.304688 L 283.78125 287.511719 C 283.78125 290.761719 281.125 293.410156 277.867188 293.410156"/><g fill="#0080FF"><g><g><path d="M 20.320312 -9.28125 C 20.320312 -12.878906 18.519531 -14.960938 13.960938 -15.480469 L 9.558594 -16 C 7.558594 -16.238281 7.039062 -17.078125 7.039062 -18.039062 C 7.039062 -19.320312 8.160156 -20.277344 10.71875 -20.277344 C 13.238281 -20.277344 14.359375 -19.160156 14.558594 -17.519531 L 20.039062 -17.519531 C 19.757812 -21.039062 17.398438 -23.117188 13.679688 -23.757812 L 13.679688 -28 L 7.960938 -28 L 7.960938 -23.796875 C 4.160156 -23.160156 1.558594 -21.117188 1.558594 -17.480469 C 1.558594 -14.160156 3.601562 -12.121094 7.359375 -11.679688 L 11.839844 -11.078125 C 14.078125 -10.800781 14.640625 -9.917969 14.640625 -8.71875 C 14.640625 -7.320312 13.640625 -6.441406 10.917969 -6.441406 C 7.960938 -6.441406 6.597656 -7.960938 6.441406 -9.878906 L 1.039062 -9.878906 C 1.160156 -6.597656 3.039062 -3.71875 7.960938 -2.917969 L 7.960938 1.398438 L 13.679688 1.398438 L 13.679688 -2.878906 C 18.519531 -3.558594 20.320312 -5.960938 20.320312 -9.28125 Z M 20.320312 -9.28125" transform="translate(94.887 284.42)"/></g></g></g><g fill="#0080FF"><g><g><path d="M 15.519531 -17.558594 C 11.917969 -17.558594 9.597656 -16.558594 8.121094 -15.117188 L 8.597656 -21.839844 L 23.796875 -21.839844 L 23.796875 -26.597656 L 3.679688 -26.597656 L 2.679688 -11.199219 L 8.558594 -11.199219 C 9.519531 -12.558594 11.160156 -13.757812 13.917969 -13.757812 C 17.117188 -13.757812 18.878906 -12.121094 18.878906 -8.839844 C 18.878906 -5.640625 17.199219 -3.960938 13.398438 -3.960938 C 9.839844 -3.960938 8.398438 -5.640625 8.160156 -7.558594 L 1.800781 -7.558594 C 2 -3.078125 5.320312 0.679688 13.078125 0.679688 C 21.238281 0.679688 25.039062 -3.039062 25.039062 -8.839844 C 25.039062 -14.757812 21 -17.558594 15.519531 -17.558594 Z M 15.519531 -17.558594" transform="translate(116.405 284.42)"/></g></g></g><g fill="#0080FF"><g><g><path d="M 14.398438 0.679688 C 23.796875 0.679688 27.316406 -5.960938 27.316406 -13.277344 C 27.316406 -20.480469 23.796875 -27.277344 14.398438 -27.277344 C 5.039062 -27.277344 1.519531 -20.519531 1.519531 -13.277344 C 1.519531 -5.917969 5.039062 0.679688 14.398438 0.679688 Z M 7.839844 -13.277344 C 7.839844 -19.160156 9.359375 -22.320312 14.398438 -22.320312 C 19.480469 -22.320312 21 -19.160156 21 -13.277344 C 21 -7.480469 19.480469 -4.320312 14.398438 -4.320312 C 9.359375 -4.320312 7.839844 -7.480469 7.839844 -13.277344 Z M 7.839844 -13.277344" transform="translate(143.002 284.42)"/></g></g></g><g fill="#0080FF"><g><g><path d="M 14.398438 0.679688 C 23.796875 0.679688 27.316406 -5.960938 27.316406 -13.277344 C 27.316406 -20.480469 23.796875 -27.277344 14.398438 -27.277344 C 5.039062 -27.277344 1.519531 -20.519531 1.519531 -13.277344 C 1.519531 -5.917969 5.039062 0.679688 14.398438 0.679688 Z M 7.839844 -13.277344 C 7.839844 -19.160156 9.359375 -22.320312 14.398438 -22.320312 C 19.480469 -22.320312 21 -19.160156 21 -13.277344 C 21 -7.480469 19.480469 -4.320312 14.398438 -4.320312 C 9.359375 -4.320312 7.839844 -7.480469 7.839844 -13.277344 Z M 7.839844 -13.277344" transform="translate(171.84 284.42)"/></g></g></g><g fill="#0080FF"><g><g><path d="M 0.398438 0 L 5.800781 0 L 15.679688 -26.597656 L 10.28125 -26.597656 Z M 0.398438 0" transform="translate(200.676 284.42)"/></g></g></g><g fill="#0080FF"><g><g><path d="M 28.839844 -20.640625 C 25.078125 -20.640625 22.878906 -18.757812 21.679688 -16 C 20.796875 -18.957031 18.640625 -20.640625 15.078125 -20.640625 C 11.597656 -20.640625 9.4375 -18.917969 8.238281 -16.359375 L 8.238281 -20 L 2.320312 -20 L 2.320312 0 L 8.238281 0 L 8.238281 -9.078125 C 8.238281 -13.839844 9.757812 -15.839844 12.757812 -15.839844 C 15.160156 -15.839844 16.359375 -14.4375 16.359375 -11.4375 L 16.359375 0 L 22.160156 0 L 22.160156 -9.078125 C 22.160156 -13.839844 23.679688 -15.839844 26.679688 -15.839844 C 29.078125 -15.839844 30.277344 -14.4375 30.277344 -11.4375 L 30.277344 0 L 36.199219 0 L 36.199219 -12.277344 C 36.199219 -17.519531 33.917969 -20.640625 28.839844 -20.640625 Z M 28.839844 -20.640625" transform="translate(216.755 284.42)"/></g></g></g><g fill="#0080FF"><g><g><path d="M 12.558594 0.640625 C 20.558594 0.640625 23.636719 -4.480469 23.636719 -10.039062 C 23.636719 -15.519531 20.558594 -20.640625 12.558594 -20.640625 C 4.601562 -20.640625 1.480469 -15.558594 1.480469 -10.039062 C 1.480469 -4.441406 4.601562 0.640625 12.558594 0.640625 Z M 7.441406 -10 C 7.441406 -14.4375 8.960938 -16 12.558594 -16 C 16.199219 -16 17.71875 -14.4375 17.71875 -10 C 17.71875 -5.558594 16.199219 -4 12.558594 -4 C 8.960938 -4 7.441406 -5.558594 7.441406 -10 Z M 7.441406 -10" transform="translate(254.99 284.42)"/></g></g></g><path fill="#FFF" d="M 180.464844 165.054688 C 180.40625 167.171875 178.785156 168.792969 176.675781 168.851562 C 174.5625 168.910156 172.9375 167.085938 172.882812 165.054688 C 172.828125 162.941406 174.648438 161.316406 176.675781 161.261719 C 178.785156 161.203125 180.410156 163.027344 180.464844 165.054688 C 180.496094 166.265625 182.375 166.269531 182.34375 165.054688 C 182.257812 161.90625 179.820312 159.464844 176.675781 159.378906 C 173.53125 159.296875 171.089844 162.035156 171.007812 165.054688 C 170.921875 168.207031 173.65625 170.648438 176.675781 170.730469 C 179.820312 170.816406 182.261719 168.078125 182.34375 165.054688 C 182.375 163.84375 180.496094 163.847656 180.464844 165.054688"/><path fill="#FFF" d="M 190.785156 169.496094 C 190.710938 178.328125 182.625 185.160156 173.902344 183.601562 C 169.800781 182.867188 166.238281 180.292969 164.117188 176.730469 C 161.921875 173.042969 161.625 168.503906 163.054688 164.496094 C 165.363281 158.019531 172.367188 154.195312 179.050781 155.390625 C 185.816406 156.601562 190.730469 162.675781 190.785156 169.496094 C 190.796875 170.707031 192.671875 170.707031 192.664062 169.496094 C 192.589844 160.800781 185.664062 153.660156 177 153.292969 C 168.3125 152.925781 160.972656 159.90625 160.324219 168.449219 C 159.660156 177.148438 166.417969 184.691406 174.917969 185.628906 C 183.484375 186.574219 191.449219 180.054688 192.523438 171.570312 C 192.613281 170.878906 192.65625 170.191406 192.664062 169.496094 C 192.671875 168.285156 190.796875 168.285156 190.785156 169.496094"/><path fill="#FFF" d="M 170.027344 178.671875 C 170.027344 176.886719 169.644531 174.710938 171.339844 173.542969 C 172.003906 173.085938 172.753906 173.0625 173.523438 173.0625 C 174.476562 173.0625 175.429688 173.0625 176.382812 173.0625 C 177.320312 173.0625 178.257812 173.0625 179.199219 173.0625 C 179.976562 173.0625 180.6875 173.046875 181.410156 173.421875 C 183.339844 174.421875 182.921875 176.871094 182.921875 178.671875 C 182.921875 179.882812 184.800781 179.882812 184.800781 178.671875 C 184.800781 176.300781 185.039062 173.839844 182.945312 172.203125 C 181.167969 170.8125 178.683594 171.183594 176.566406 171.183594 C 174.484375 171.183594 172.003906 170.8125 170.195312 172.054688 C 167.910156 173.625 168.152344 176.242188 168.152344 178.671875 C 168.152344 179.882812 170.027344 179.882812 170.027344 178.671875"/><path fill="#FFF" d="M 218.980469 190.390625 C 218.921875 192.503906 217.300781 194.128906 215.191406 194.183594 C 213.078125 194.242188 211.453125 192.417969 211.398438 190.390625 C 211.34375 188.273438 213.164062 186.648438 215.191406 186.59375 C 217.300781 186.535156 218.925781 188.359375 218.980469 190.390625 C 219.011719 191.597656 220.890625 191.601562 220.855469 190.390625 C 220.773438 187.238281 218.335938 184.796875 215.191406 184.714844 C 212.046875 184.628906 209.605469 187.367188 209.523438 190.390625 C 209.4375 193.539062 212.171875 195.984375 215.191406 196.066406 C 218.335938 196.148438 220.777344 193.410156 220.855469 190.390625 C 220.890625 189.175781 219.011719 189.179688 218.980469 190.390625"/><g clip-path="url(#a)"><path fill="#FFF" d="M 229.300781 194.828125 C 229.226562 203.660156 221.140625 210.496094 212.414062 208.933594 C 208.316406 208.199219 204.753906 205.625 202.632812 202.0625 C 200.4375 198.375 200.140625 193.839844 201.570312 189.828125 C 203.878906 183.351562 210.882812 179.527344 217.566406 180.722656 C 224.332031 181.933594 229.246094 188.007812 229.300781 194.828125 C 229.3125 196.039062 231.191406 196.042969 231.179688 194.828125 C 231.105469 186.132812 224.179688 178.992188 215.515625 178.625 C 206.828125 178.257812 199.488281 185.238281 198.835938 193.78125 C 198.175781 202.480469 204.933594 210.027344 213.429688 210.960938 C 222 211.90625 229.964844 205.386719 231.039062 196.902344 C 231.128906 196.210938 231.171875 195.523438 231.179688 194.828125 C 231.191406 193.617188 229.3125 193.617188 229.300781 194.828125"/></g><path fill="#FFF" d="M 208.542969 204.003906 C 208.542969 202.21875 208.160156 200.042969 209.851562 198.878906 C 210.519531 198.417969 211.265625 198.394531 212.039062 198.394531 C 212.992188 198.394531 213.945312 198.394531 214.898438 198.394531 C 215.835938 198.394531 216.773438 198.394531 217.710938 198.394531 C 218.492188 198.394531 219.203125 198.382812 219.921875 198.753906 C 221.855469 199.757812 221.4375 202.203125 221.4375 204.003906 C 221.4375 205.214844 223.316406 205.214844 223.316406 204.003906 C 223.316406 201.632812 223.554688 199.175781 221.460938 197.535156 C 219.683594 196.144531 217.199219 196.515625 215.082031 196.515625 C 213.003906 196.515625 210.519531 196.144531 208.710938 197.390625 C 206.425781 198.960938 206.667969 201.578125 206.667969 204.003906 C 206.667969 205.214844 208.542969 205.214844 208.542969 204.003906"/><path fill="#FFF" d="M 163.699219 210.253906 C 163.644531 212.367188 162.019531 213.996094 159.910156 214.050781 C 157.800781 214.109375 156.175781 212.285156 156.117188 210.253906 C 156.0625 208.140625 157.886719 206.511719 159.910156 206.460938 C 162.019531 206.402344 163.644531 208.226562 163.699219 210.253906 C 163.734375 211.464844 165.609375 211.46875 165.578125 210.253906 C 165.492188 207.105469 163.054688 204.664062 159.910156 204.578125 C 156.765625 204.496094 154.324219 207.234375 154.242188 210.253906 C 154.15625 213.402344 156.890625 215.847656 159.910156 215.929688 C 163.054688 216.015625 165.496094 213.277344 165.578125 210.253906 C 165.609375 209.042969 163.734375 209.046875 163.699219 210.253906"/><g clip-path="url(#b)"><path fill="#FFF" d="M 174.023438 214.695312 C 173.949219 223.527344 165.859375 230.359375 157.136719 228.800781 C 153.039062 228.066406 149.476562 225.488281 147.351562 221.929688 C 145.15625 218.242188 144.863281 213.703125 146.289062 209.695312 C 148.597656 203.21875 155.605469 199.394531 162.285156 200.589844 C 169.050781 201.800781 173.964844 207.875 174.023438 214.695312 C 174.03125 215.90625 175.910156 215.90625 175.898438 214.695312 C 175.824219 206 168.902344 198.859375 160.234375 198.492188 C 151.546875 198.125 144.207031 205.105469 143.558594 213.648438 C 142.898438 222.347656 149.65625 229.890625 158.152344 230.828125 C 166.71875 231.773438 174.683594 225.253906 175.757812 216.765625 C 175.847656 216.078125 175.894531 215.390625 175.898438 214.695312 C 175.910156 213.484375 174.03125 213.484375 174.023438 214.695312"/></g><path fill="#FFF" d="M 153.261719 223.871094 C 153.261719 222.082031 152.878906 219.90625 154.574219 218.742188 C 155.242188 218.285156 155.988281 218.261719 156.757812 218.261719 C 157.710938 218.261719 158.664062 218.261719 159.617188 218.261719 C 160.554688 218.261719 161.496094 218.261719 162.433594 218.261719 C 163.210938 218.261719 163.925781 218.246094 164.644531 218.621094 C 166.574219 219.621094 166.160156 222.070312 166.160156 223.871094 C 166.160156 225.082031 168.035156 225.082031 168.035156 223.871094 C 168.035156 221.5 168.277344 219.042969 166.179688 217.402344 C 164.402344 216.011719 161.917969 216.382812 159.804688 216.382812 C 157.722656 216.382812 155.238281 216.011719 153.429688 217.253906 C 151.148438 218.824219 151.386719 221.441406 151.386719 223.871094 C 151.386719 225.082031 153.261719 225.082031 153.261719 223.871094"/><path fill="#FFF" d="M 188.191406 179.484375 C 192.488281 182.460938 196.785156 185.4375 201.078125 188.417969 C 202.078125 189.109375 203.011719 187.480469 202.023438 186.792969 C 197.730469 183.816406 193.433594 180.839844 189.140625 177.859375 C 188.144531 177.167969 187.207031 178.796875 188.191406 179.484375"/><path fill="#FFF" d="M 162.238281 199.894531 C 164.96875 194.46875 167.695312 189.039062 170.425781 183.613281 C 170.96875 182.535156 169.347656 181.582031 168.804688 182.664062 C 166.074219 188.09375 163.347656 193.519531 160.617188 198.949219 C 160.074219 200.027344 161.691406 200.980469 162.238281 199.894531"/><g fill="#FFF"><g><g><path d="M 1.183594 -6.65625 C 1.335938 -2.980469 3.617188 0.515625 10.273438 0.515625 C 16.597656 0.515625 19.058594 -2.066406 19.058594 -6.050781 C 19.058594 -9.574219 16.992188 -11.519531 12.886719 -11.976562 L 8.664062 -12.492188 C 6.992188 -12.675781 6.292969 -13.558594 6.292969 -14.742188 C 6.292969 -16.324219 7.597656 -17.328125 10.0625 -17.328125 C 12.738281 -17.328125 14.074219 -16.109375 14.316406 -14.226562 L 18.847656 -14.226562 C 18.601562 -17.8125 16.109375 -20.730469 10.0625 -20.730469 C 4.378906 -20.730469 1.640625 -18.117188 1.640625 -14.46875 C 1.640625 -11.125 3.648438 -9.148438 7.234375 -8.722656 L 11.703125 -8.148438 C 13.496094 -7.902344 14.410156 -7.113281 14.410156 -5.59375 C 14.410156 -3.980469 13.40625 -2.917969 10.335938 -2.917969 C 7.144531 -2.917969 5.804688 -4.5 5.683594 -6.65625 Z M 1.183594 -6.65625" transform="translate(67.758 93.71)"/></g></g></g><g fill="#FFF"><g><g><path d="M 12.039062 0.515625 C 19.789062 0.515625 22.675781 -4.527344 22.675781 -10.09375 C 22.675781 -15.5625 19.789062 -20.730469 12.039062 -20.730469 C 4.285156 -20.730469 1.367188 -15.59375 1.367188 -10.09375 C 1.367188 -4.5 4.285156 0.515625 12.039062 0.515625 Z M 6.199219 -10.09375 C 6.199219 -14.558594 7.597656 -16.960938 12.039062 -16.960938 C 16.476562 -16.960938 17.875 -14.558594 17.875 -10.09375 C 17.875 -5.683594 16.476562 -3.28125 12.039062 -3.28125 C 7.597656 -3.28125 6.199219 -5.683594 6.199219 -10.09375 Z M 6.199219 -10.09375" transform="translate(88.056 93.71)"/></g></g></g><g fill="#FFF"><g><g><path d="M 11.945312 0.515625 C 19.089844 0.515625 21.886719 -2.339844 22.3125 -8.175781 L 17.539062 -8.175781 C 17.296875 -5.015625 15.777344 -3.28125 11.886719 -3.28125 C 7.84375 -3.28125 6.199219 -5.625 6.199219 -10.09375 C 6.199219 -14.621094 7.964844 -16.960938 12.039062 -16.960938 C 15.777344 -16.960938 17.203125 -15.257812 17.480469 -12.28125 L 22.21875 -12.28125 C 21.765625 -17.8125 18.9375 -20.730469 11.976562 -20.730469 C 4.378906 -20.730469 1.367188 -15.683594 1.367188 -10.09375 C 1.367188 -4.40625 4.347656 0.515625 11.945312 0.515625 Z M 11.945312 0.515625" transform="translate(112.092 93.71)"/></g></g></g><g fill="#FFF"><g><g><path d="M 13.859375 -16.566406 L 13.859375 -20.214844 L 1.761719 -20.214844 L 1.761719 -16.566406 L 5.5 -16.566406 L 5.5 -3.679688 L 1.761719 -3.679688 L 1.761719 0 L 13.859375 0 L 13.859375 -3.679688 L 10.121094 -3.679688 L 10.121094 -16.566406 Z M 13.859375 -16.566406" transform="translate(135.611 93.71)"/></g></g></g><g fill="#FFF"><g><g><path d="M 17.539062 0 L 22.191406 0 L 15.078125 -20.214844 L 8.023438 -20.214844 L 0.910156 0 L 5.5625 0 L 7.023438 -4.132812 L 16.082031 -4.132812 Z M 8.269531 -7.691406 L 11.550781 -17.023438 L 14.832031 -7.691406 Z M 8.269531 -7.691406" transform="translate(151.23 93.71)"/></g></g></g><g fill="#FFF"><g><g><path d="M 6.414062 -3.679688 L 6.414062 -20.214844 L 1.761719 -20.214844 L 1.761719 0 L 15.867188 0 L 15.867188 -3.679688 Z M 6.414062 -3.679688" transform="translate(174.294 93.71)"/></g></g></g><g fill="#FFF"><g><g><path d="M 26.992188 -20.214844 L 19.179688 -20.214844 L 14.4375 -4.558594 L 9.695312 -20.214844 L 1.761719 -20.214844 L 1.761719 0 L 6.351562 0 L 6.351562 -17.265625 L 11.703125 0 L 17.054688 0 L 22.371094 -17.175781 L 22.371094 0 L 26.992188 0 Z M 26.992188 -20.214844" transform="translate(198.42 93.71)"/></g></g></g><g fill="#FFF"><g><g><path d="M 6.382812 -3.679688 L 6.382812 -8.601562 L 16.71875 -8.601562 L 16.71875 -12.039062 L 6.382812 -12.039062 L 6.382812 -16.566406 L 17.628906 -16.566406 L 17.628906 -20.214844 L 1.761719 -20.214844 L 1.761719 0 L 17.722656 0 L 17.722656 -3.679688 Z M 6.382812 -3.679688" transform="translate(227.136 93.71)"/></g></g></g><g fill="#FFF"><g><g><path d="M 11.492188 -20.214844 L 1.761719 -20.214844 L 1.761719 0 L 11.492188 0 C 18.054688 0 21.035156 -4.804688 21.035156 -10.152344 C 21.035156 -15.472656 18.054688 -20.214844 11.492188 -20.214844 Z M 10.457031 -3.679688 L 6.382812 -3.679688 L 6.382812 -16.566406 L 10.457031 -16.566406 C 14.558594 -16.566406 16.230469 -14.46875 16.230469 -10.152344 C 16.230469 -5.867188 14.589844 -3.679688 10.457031 -3.679688 Z M 10.457031 -3.679688" transform="translate(246.371 93.71)"/></g></g></g><g fill="#FFF"><g><g><path d="M 13.859375 -16.566406 L 13.859375 -20.214844 L 1.761719 -20.214844 L 1.761719 -16.566406 L 5.5 -16.566406 L 5.5 -3.679688 L 1.761719 -3.679688 L 1.761719 0 L 13.859375 0 L 13.859375 -3.679688 L 10.121094 -3.679688 L 10.121094 -16.566406 Z M 13.859375 -16.566406" transform="translate(268.553 93.71)"/></g></g></g><g fill="#FFF"><g><g><path d="M 17.539062 0 L 22.191406 0 L 15.078125 -20.214844 L 8.023438 -20.214844 L 0.910156 0 L 5.5625 0 L 7.023438 -4.132812 L 16.082031 -4.132812 Z M 8.269531 -7.691406 L 11.550781 -17.023438 L 14.832031 -7.691406 Z M 8.269531 -7.691406" transform="translate(284.172 93.71)"/></g></g></g><g fill="#FFF"><g><g><path d="M 17.539062 0 L 22.191406 0 L 15.078125 -20.214844 L 8.023438 -20.214844 L 0.910156 0 L 5.5625 0 L 7.023438 -4.132812 L 16.082031 -4.132812 Z M 8.269531 -7.691406 L 11.550781 -17.023438 L 14.832031 -7.691406 Z M 8.269531 -7.691406" transform="translate(123 135.71)"/></g></g></g><g fill="#FFF"><g><g><path d="M 11.492188 -20.214844 L 1.761719 -20.214844 L 1.761719 0 L 11.492188 0 C 18.054688 0 21.035156 -4.804688 21.035156 -10.152344 C 21.035156 -15.472656 18.054688 -20.214844 11.492188 -20.214844 Z M 10.457031 -3.679688 L 6.382812 -3.679688 L 6.382812 -16.566406 L 10.457031 -16.566406 C 14.558594 -16.566406 16.230469 -14.46875 16.230469 -10.152344 C 16.230469 -5.867188 14.589844 -3.679688 10.457031 -3.679688 Z M 10.457031 -3.679688" transform="translate(146.064 135.71)"/></g></g></g><g fill="#FFF"><g><g><path d="M 11.492188 -20.214844 L 1.761719 -20.214844 L 1.761719 0 L 11.492188 0 C 18.054688 0 21.035156 -4.804688 21.035156 -10.152344 C 21.035156 -15.472656 18.054688 -20.214844 11.492188 -20.214844 Z M 10.457031 -3.679688 L 6.382812 -3.679688 L 6.382812 -16.566406 L 10.457031 -16.566406 C 14.558594 -16.566406 16.230469 -14.46875 16.230469 -10.152344 C 16.230469 -5.867188 14.589844 -3.679688 10.457031 -3.679688 Z M 10.457031 -3.679688" transform="translate(168.246 135.71)"/></g></g></g><g fill="#FFF"><g><g><path d="M 0.851562 -9.363281 L 0.851562 -6.292969 L 13.617188 -6.292969 L 13.617188 -9.363281 Z M 0.851562 -9.363281" transform="translate(190.428 135.71)"/></g></g></g><g fill="#FFF"><g><g><path d="M 12.039062 0.515625 C 19.789062 0.515625 22.675781 -4.527344 22.675781 -10.09375 C 22.675781 -15.5625 19.789062 -20.730469 12.039062 -20.730469 C 4.285156 -20.730469 1.367188 -15.59375 1.367188 -10.09375 C 1.367188 -4.5 4.285156 0.515625 12.039062 0.515625 Z M 6.199219 -10.09375 C 6.199219 -14.558594 7.597656 -16.960938 12.039062 -16.960938 C 16.476562 -16.960938 17.875 -14.558594 17.875 -10.09375 C 17.875 -5.683594 16.476562 -3.28125 12.039062 -3.28125 C 7.597656 -3.28125 6.199219 -5.683594 6.199219 -10.09375 Z M 6.199219 -10.09375" transform="translate(204.862 135.71)"/></g></g></g><g fill="#FFF"><g><g><path d="M 16.902344 -20.214844 L 16.902344 -3.28125 C 16.566406 -4.316406 16.171875 -5.351562 15.808594 -6.199219 L 9.421875 -20.214844 L 1.761719 -20.214844 L 1.761719 0 L 6.199219 0 L 6.199219 -16.902344 C 6.503906 -15.867188 6.898438 -14.832031 7.355469 -13.800781 L 13.679688 0 L 21.339844 0 L 21.339844 -20.214844 Z M 16.902344 -20.214844" transform="translate(228.898 135.71)"/></g></g></g><g fill="#FFF"><g><g><path d="M 0.449219 -8.191406 L 2.445312 -7.273438 L 0.480469 -6.40625 L 0.988281 -5.503906 L 2.761719 -6.78125 L 2.535156 -4.621094 L 3.554688 -4.621094 L 3.328125 -6.78125 L 5.101562 -5.503906 L 5.625 -6.40625 L 3.644531 -7.320312 L 5.609375 -8.191406 L 5.101562 -9.074219 L 3.328125 -7.816406 L 3.554688 -9.976562 L 2.535156 -9.976562 L 2.761719 -7.816406 L 0.988281 -9.074219 Z M 0.449219 -8.191406" transform="translate(154.908 309.97)"/></g></g></g><g fill="#FFF"><g><g><path d="M 8.65625 0 L 10.949219 0 L 7.441406 -9.976562 L 3.960938 -9.976562 L 0.449219 0 L 2.746094 0 L 3.464844 -2.039062 L 7.933594 -2.039062 Z M 4.078125 -3.796875 L 5.699219 -8.398438 L 7.320312 -3.796875 Z M 4.078125 -3.796875" transform="translate(160.983 309.97)"/></g></g></g><g fill="#FFF"><g><g><path d="M 8.339844 -9.976562 L 8.339844 -1.621094 C 8.175781 -2.128906 7.980469 -2.640625 7.800781 -3.058594 L 4.648438 -9.976562 L 0.871094 -9.976562 L 0.871094 0 L 3.058594 0 L 3.058594 -8.339844 C 3.210938 -7.828125 3.40625 -7.320312 3.628906 -6.808594 L 6.75 0 L 10.53125 0 L 10.53125 -9.976562 Z M 8.339844 -9.976562" transform="translate(172.368 309.97)"/></g></g></g><g fill="#FFF"><g><g><path d="M 5.671875 -9.976562 L 0.871094 -9.976562 L 0.871094 0 L 5.671875 0 C 8.910156 0 10.378906 -2.371094 10.378906 -5.011719 C 10.378906 -7.636719 8.910156 -9.976562 5.671875 -9.976562 Z M 5.160156 -1.816406 L 3.148438 -1.816406 L 3.148438 -8.175781 L 5.160156 -8.175781 C 7.183594 -8.175781 8.011719 -7.140625 8.011719 -5.011719 C 8.011719 -2.894531 7.199219 -1.816406 5.160156 -1.816406 Z M 5.160156 -1.816406" transform="translate(183.768 309.97)"/></g></g></g><g fill="#FFF"><g><g><path d="M 0.824219 -3.734375 C 0.824219 -1.125 2.324219 0.238281 5.308594 0.238281 C 8.296875 0.238281 9.78125 -1.140625 9.78125 -3.734375 L 9.78125 -9.976562 L 7.515625 -9.976562 L 7.515625 -4.050781 C 7.515625 -2.113281 6.78125 -1.621094 5.308594 -1.621094 C 3.839844 -1.621094 3.105469 -2.113281 3.105469 -4.050781 L 3.105469 -9.976562 L 0.824219 -9.976562 Z M 0.824219 -3.734375" transform="translate(198.513 309.97)"/></g></g></g><g fill="#FFF"><g><g><path d="M 6.164062 -9.976562 L 0.871094 -9.976562 L 0.871094 0 L 3.164062 0 L 3.164062 -3.480469 L 6.164062 -3.480469 C 8.429688 -3.480469 9.328125 -4.933594 9.328125 -6.78125 C 9.328125 -8.519531 8.429688 -9.976562 6.164062 -9.976562 Z M 5.445312 -5.25 L 3.164062 -5.25 L 3.164062 -8.203125 L 5.460938 -8.203125 C 6.570312 -8.203125 6.960938 -7.605469 6.960938 -6.765625 C 6.960938 -5.894531 6.554688 -5.25 5.445312 -5.25 Z M 5.445312 -5.25" transform="translate(209.118 309.97)"/></g></g></g></svg>