<svg xmlns="http://www.w3.org/2000/svg" width="375" viewBox="0 0 375 375" height="375" version="1.0">
    <defs>
        <clipPath id="a">
            <path d="M 117.796875 103.296875 L 257.296875 103.296875 L 257.296875 242.796875 L 117.796875 242.796875 Z M 117.796875 103.296875" />
        </clipPath>
    </defs>
    <path fill="#0080FF" d="M 330.691406 40.765625 C 332.636719 40.765625 334.234375 42.363281 334.234375 44.308594 L 334.234375 330.691406 C 334.234375 332.636719 332.636719 334.234375 330.691406 334.234375 L 44.308594 334.234375 C 42.363281 334.234375 40.765625 332.636719 40.765625 330.691406 L 40.765625 44.308594 C 40.765625 42.363281 42.363281 40.765625 44.308594 40.765625 L 330.691406 40.765625 M 330.691406 37.5 L 44.308594 37.5 C 40.554688 37.5 37.5 40.554688 37.5 44.308594 L 37.5 330.691406 C 37.5 334.445312 40.554688 337.5 44.308594 337.5 L 330.691406 337.5 C 334.445312 337.5 337.5 334.445312 337.5 330.691406 L 337.5 44.308594 C 337.5 40.554688 334.445312 37.5 330.691406 37.5" />
    <g clip-path="url(#a)">
        <path fill="#0080FF" d="M 146.746094 103.265625 L 118.449219 131.5625 L 158.808594 171.921875 L 162.03125 168.699219 L 124.894531 131.5625 L 146.746094 109.710938 L 183.882812 146.851562 L 187.105469 143.628906 Z M 243.753906 104.21875 C 240.566406 104.21875 237.386719 105.429688 234.964844 107.84375 L 233.042969 109.773438 L 231.082031 107.824219 L 214.183594 124.722656 L 131.109375 207.789062 L 117.699219 242.65625 L 152.578125 229.257812 L 152.914062 228.910156 L 252.542969 129.28125 L 250.589844 127.324219 L 252.523438 125.402344 C 256.199219 121.714844 257.027344 116.265625 255.097656 111.734375 L 256.40625 111.734375 L 252.523438 107.84375 C 250.109375 105.4375 246.929688 104.226562 243.753906 104.21875 Z M 243.742188 108.757812 C 245.746094 108.757812 247.75 109.523438 249.292969 111.074219 C 252.378906 114.15625 252.378906 119.085938 249.292969 122.167969 L 247.359375 124.109375 L 236.253906 113.007812 L 238.195312 111.074219 C 239.738281 109.523438 241.742188 108.75 243.742188 108.757812 Z M 231.082031 114.269531 L 246.09375 129.28125 L 235.800781 139.574219 L 220.789062 124.5625 Z M 149.023438 120.164062 C 147.769531 120.164062 146.746094 121.1875 146.746094 122.445312 C 146.746094 123.699219 147.769531 124.722656 149.023438 124.722656 C 150.277344 124.722656 151.304688 123.699219 151.304688 122.445312 C 151.304688 121.1875 150.277344 120.164062 149.023438 120.164062 Z M 142.183594 127.003906 C 140.929688 127.003906 139.90625 128.027344 139.90625 129.28125 C 139.90625 130.539062 140.929688 131.5625 142.183594 131.5625 C 143.441406 131.5625 144.464844 130.539062 144.464844 129.28125 C 144.464844 128.027344 143.441406 127.003906 142.183594 127.003906 Z M 155.863281 127.003906 C 154.605469 127.003906 153.582031 128.027344 153.582031 129.28125 C 153.582031 130.539062 154.605469 131.5625 155.863281 131.5625 C 157.117188 131.5625 158.140625 130.539062 158.140625 129.28125 C 158.140625 128.027344 157.117188 127.003906 155.863281 127.003906 Z M 217.40625 127.945312 L 232.417969 142.960938 L 152.800781 222.578125 C 152.398438 221.324219 151.773438 219.988281 150.636719 218.847656 C 148.960938 217.171875 146.851562 216.558594 145.195312 216.230469 C 144.667969 216.121094 144.667969 216.175781 144.242188 216.121094 C 144.1875 215.695312 144.242188 215.695312 144.136719 215.171875 C 143.804688 213.515625 143.191406 211.402344 141.519531 209.730469 C 140.378906 208.589844 139.042969 207.96875 137.785156 207.566406 Z M 162.699219 133.839844 C 161.445312 133.839844 160.421875 134.867188 160.421875 136.121094 C 160.421875 137.375 161.445312 138.398438 162.699219 138.398438 C 163.957031 138.398438 164.980469 137.375 164.980469 136.121094 C 164.980469 134.867188 163.957031 133.839844 162.699219 133.839844 Z M 217.40625 133.839844 C 216.152344 133.839844 215.125 134.867188 215.125 136.121094 C 215.125 137.375 216.152344 138.398438 217.40625 138.398438 C 218.660156 138.398438 219.683594 137.375 219.683594 136.121094 C 219.683594 134.867188 218.660156 133.839844 217.40625 133.839844 Z M 155.863281 140.679688 C 154.605469 140.679688 153.582031 141.703125 153.582031 142.960938 C 153.582031 144.214844 154.605469 145.238281 155.863281 145.238281 C 157.117188 145.238281 158.140625 144.214844 158.140625 142.960938 C 158.140625 141.703125 157.117188 140.679688 155.863281 140.679688 Z M 169.539062 140.679688 C 168.28125 140.679688 167.257812 141.703125 167.257812 142.960938 C 167.257812 144.214844 168.28125 145.238281 169.539062 145.238281 C 170.792969 145.238281 171.816406 144.214844 171.816406 142.960938 C 171.816406 141.703125 170.792969 140.679688 169.539062 140.679688 Z M 210.566406 140.679688 C 209.3125 140.679688 208.289062 141.703125 208.289062 142.960938 C 208.289062 144.214844 209.3125 145.238281 210.566406 145.238281 C 211.824219 145.238281 212.847656 144.214844 212.847656 142.960938 C 212.847656 141.703125 211.824219 140.679688 210.566406 140.679688 Z M 176.375 147.519531 C 175.121094 147.519531 174.097656 148.542969 174.097656 149.796875 C 174.097656 151.054688 175.121094 152.078125 176.375 152.078125 C 177.632812 152.078125 178.65625 151.054688 178.65625 149.796875 C 178.65625 148.542969 177.632812 147.519531 176.375 147.519531 Z M 203.730469 147.519531 C 202.472656 147.519531 201.449219 148.542969 201.449219 149.796875 C 201.449219 151.054688 202.472656 152.078125 203.730469 152.078125 C 204.984375 152.078125 206.007812 151.054688 206.007812 149.796875 C 206.007812 148.542969 204.984375 147.519531 203.730469 147.519531 Z M 169.539062 154.355469 C 168.28125 154.355469 167.257812 155.378906 167.257812 156.636719 C 167.257812 157.890625 168.28125 158.914062 169.539062 158.914062 C 170.792969 158.914062 171.816406 157.890625 171.816406 156.636719 C 171.816406 155.378906 170.792969 154.355469 169.539062 154.355469 Z M 196.890625 154.355469 C 195.636719 154.355469 194.613281 155.378906 194.613281 156.636719 C 194.613281 157.890625 195.636719 158.914062 196.890625 158.914062 C 198.148438 158.914062 199.171875 157.890625 199.171875 156.636719 C 199.171875 155.378906 198.148438 154.355469 196.890625 154.355469 Z M 190.054688 161.195312 C 188.796875 161.195312 187.773438 162.21875 187.773438 163.472656 C 187.773438 164.730469 188.796875 165.753906 190.054688 165.753906 C 191.308594 165.753906 192.332031 164.730469 192.332031 163.472656 C 192.332031 162.21875 191.308594 161.195312 190.054688 161.195312 Z M 183.214844 168.03125 C 181.960938 168.03125 180.933594 169.058594 180.933594 170.3125 C 180.933594 171.566406 181.960938 172.589844 183.214844 172.589844 C 184.46875 172.589844 185.496094 171.566406 185.496094 170.3125 C 185.496094 169.058594 184.46875 168.03125 183.214844 168.03125 Z M 216.738281 173.257812 L 213.515625 176.484375 L 250.652344 213.621094 L 228.804688 235.472656 L 191.664062 198.332031 L 188.441406 201.554688 L 228.804688 241.917969 L 257.101562 213.621094 Z M 176.375 174.871094 C 175.121094 174.871094 174.097656 175.894531 174.097656 177.148438 C 174.097656 178.40625 175.121094 179.429688 176.375 179.429688 C 177.632812 179.429688 178.65625 178.40625 178.65625 177.148438 C 178.65625 175.894531 177.632812 174.871094 176.375 174.871094 Z M 169.539062 181.710938 C 168.28125 181.710938 167.257812 182.734375 167.257812 183.988281 C 167.257812 185.242188 168.28125 186.269531 169.539062 186.269531 C 170.792969 186.269531 171.816406 185.242188 171.816406 183.988281 C 171.816406 182.734375 170.792969 181.710938 169.539062 181.710938 Z M 210.566406 182.449219 C 209.3125 182.449219 208.289062 183.464844 208.289062 184.726562 C 208.289062 185.984375 209.3125 187.007812 210.566406 187.007812 C 211.824219 187.007812 212.847656 185.984375 212.847656 184.726562 C 212.847656 183.464844 211.824219 182.449219 210.566406 182.449219 Z M 162.699219 188.546875 C 161.445312 188.546875 160.421875 189.570312 160.421875 190.828125 C 160.421875 192.082031 161.445312 193.105469 162.699219 193.105469 C 163.957031 193.105469 164.980469 192.082031 164.980469 190.828125 C 164.980469 189.570312 163.957031 188.546875 162.699219 188.546875 Z M 217.40625 188.546875 C 216.152344 188.546875 215.125 189.570312 215.125 190.828125 C 215.125 192.082031 216.152344 193.105469 217.40625 193.105469 C 218.660156 193.105469 219.683594 192.082031 219.683594 190.828125 C 219.683594 189.570312 218.660156 188.546875 217.40625 188.546875 Z M 203.730469 189.285156 C 202.472656 189.285156 201.449219 190.300781 201.449219 191.566406 C 201.449219 192.820312 202.472656 193.84375 203.730469 193.84375 C 204.984375 193.84375 206.007812 192.820312 206.007812 191.566406 C 206.007812 190.300781 204.984375 189.285156 203.730469 189.285156 Z M 155.863281 195.386719 C 154.605469 195.386719 153.582031 196.410156 153.582031 197.664062 C 153.582031 198.921875 154.605469 199.945312 155.863281 199.945312 C 157.117188 199.945312 158.140625 198.921875 158.140625 197.664062 C 158.140625 196.410156 157.117188 195.386719 155.863281 195.386719 Z M 224.246094 196.125 C 222.988281 196.125 221.964844 197.140625 221.964844 198.402344 C 221.964844 199.660156 222.988281 200.683594 224.246094 200.683594 C 225.5 200.683594 226.523438 199.660156 226.523438 198.402344 C 226.523438 197.140625 225.5 196.125 224.246094 196.125 Z M 149.023438 202.222656 C 147.769531 202.222656 146.746094 203.246094 146.746094 204.503906 C 146.746094 205.757812 147.769531 206.78125 149.023438 206.78125 C 150.277344 206.78125 151.304688 205.757812 151.304688 204.503906 C 151.304688 203.246094 150.277344 202.222656 149.023438 202.222656 Z M 231.082031 202.222656 C 229.828125 202.222656 228.804688 203.246094 228.804688 204.503906 C 228.804688 205.757812 229.828125 206.78125 231.082031 206.78125 C 232.339844 206.78125 233.363281 205.757812 233.363281 204.503906 C 233.363281 203.246094 232.339844 202.222656 231.082031 202.222656 Z M 217.40625 202.964844 C 216.152344 202.964844 215.125 203.976562 215.125 205.242188 C 215.125 206.496094 216.152344 207.523438 217.40625 207.523438 C 218.660156 207.523438 219.683594 206.496094 219.683594 205.242188 C 219.683594 203.976562 218.660156 202.964844 217.40625 202.964844 Z M 237.921875 209.800781 C 236.664062 209.800781 235.640625 210.816406 235.640625 212.082031 C 235.640625 213.335938 236.664062 214.359375 237.921875 214.359375 C 239.175781 214.359375 240.199219 213.335938 240.199219 212.082031 C 240.199219 210.816406 239.175781 209.800781 237.921875 209.800781 Z M 134.574219 211.492188 C 134.785156 211.527344 134.945312 211.539062 135.1875 211.582031 C 136.378906 211.824219 137.6875 212.347656 138.292969 212.953125 C 138.898438 213.558594 139.425781 214.867188 139.664062 216.0625 C 139.90625 217.253906 139.90625 218.179688 139.90625 218.179688 L 139.90625 220.460938 L 142.183594 220.460938 C 142.183594 220.460938 143.113281 220.460938 144.304688 220.699219 C 145.496094 220.941406 146.808594 221.464844 147.414062 222.070312 C 148.019531 222.675781 148.542969 223.984375 148.785156 225.179688 C 148.828125 225.417969 148.835938 225.578125 148.871094 225.792969 L 133.078125 231.863281 L 128.5 227.289062 Z M 231.082031 216.640625 C 229.828125 216.640625 228.804688 217.65625 228.804688 218.917969 C 228.804688 220.175781 229.828125 221.199219 231.082031 221.199219 C 232.339844 221.199219 233.363281 220.175781 233.363281 218.917969 C 233.363281 217.65625 232.339844 216.640625 231.082031 216.640625 Z M 231.082031 216.640625" />
    </g>
    <g fill="#0080FF">
        <g>
            <g>
                <path d="M 11.488281 -20.214844 L 1.761719 -20.214844 L 1.761719 0 L 11.488281 0 C 18.054688 0 21.035156 -4.800781 21.035156 -10.152344 C 21.035156 -15.472656 18.054688 -20.214844 11.488281 -20.214844 Z M 10.457031 -3.679688 L 6.382812 -3.679688 L 6.382812 -16.566406 L 10.457031 -16.566406 C 14.558594 -16.566406 16.230469 -14.46875 16.230469 -10.152344 C 16.230469 -5.867188 14.589844 -3.679688 10.457031 -3.679688 Z M 10.457031 -3.679688" transform="translate(125.255 297.7)" />
            </g>
        </g>
    </g>
    <g fill="#0080FF">
        <g>
            <g>
                <path d="M 6.382812 -3.679688 L 6.382812 -8.601562 L 16.71875 -8.601562 L 16.71875 -12.035156 L 6.382812 -12.035156 L 6.382812 -16.566406 L 17.628906 -16.566406 L 17.628906 -20.214844 L 1.761719 -20.214844 L 1.761719 0 L 17.722656 0 L 17.722656 -3.679688 Z M 6.382812 -3.679688" transform="translate(147.442 297.7)" />
            </g>
        </g>
    </g>
    <g fill="#0080FF">
        <g>
            <g>
                <path d="M 1.183594 -6.65625 C 1.335938 -2.980469 3.617188 0.515625 10.273438 0.515625 C 16.597656 0.515625 19.058594 -2.066406 19.058594 -6.046875 C 19.058594 -9.574219 16.992188 -11.519531 12.886719 -11.976562 L 8.664062 -12.492188 C 6.992188 -12.675781 6.292969 -13.554688 6.292969 -14.742188 C 6.292969 -16.324219 7.597656 -17.324219 10.0625 -17.324219 C 12.734375 -17.324219 14.074219 -16.109375 14.316406 -14.226562 L 18.84375 -14.226562 C 18.601562 -17.8125 16.109375 -20.730469 10.0625 -20.730469 C 4.378906 -20.730469 1.640625 -18.117188 1.640625 -14.46875 C 1.640625 -11.125 3.648438 -9.148438 7.234375 -8.722656 L 11.703125 -8.144531 C 13.496094 -7.902344 14.40625 -7.113281 14.40625 -5.59375 C 14.40625 -3.980469 13.40625 -2.917969 10.335938 -2.917969 C 7.144531 -2.917969 5.804688 -4.5 5.683594 -6.65625 Z M 1.183594 -6.65625" transform="translate(166.681 297.7)" />
            </g>
        </g>
    </g>
    <g fill="#0080FF">
        <g>
            <g>
                <path d="M 13.859375 -16.566406 L 13.859375 -20.214844 L 1.761719 -20.214844 L 1.761719 -16.566406 L 5.5 -16.566406 L 5.5 -3.679688 L 1.761719 -3.679688 L 1.761719 0 L 13.859375 0 L 13.859375 -3.679688 L 10.121094 -3.679688 L 10.121094 -16.566406 Z M 13.859375 -16.566406" transform="translate(186.984 297.7)" />
            </g>
        </g>
    </g>
    <g fill="#0080FF">
        <g>
            <g>
                <path d="M 11.003906 0.515625 C 15.289062 0.515625 17.386719 -1.488281 18.207031 -3.890625 L 18.207031 0 L 22.160156 0 L 22.160156 -10.761719 L 10.546875 -10.761719 L 10.546875 -7.75 L 17.75 -7.75 C 17.386719 -5.226562 16.019531 -3.128906 12.007812 -3.128906 C 7.933594 -3.128906 6.199219 -5.53125 6.199219 -10.089844 C 6.199219 -14.894531 8.175781 -17.113281 12.21875 -17.113281 C 15.59375 -17.113281 17.234375 -15.683594 17.507812 -13.375 L 22.1875 -13.375 C 21.824219 -17.660156 18.996094 -20.730469 12.25 -20.730469 C 4.621094 -20.730469 1.367188 -16.019531 1.367188 -10.121094 C 1.367188 -4.253906 4.347656 0.515625 11.003906 0.515625 Z M 11.003906 0.515625" transform="translate(202.607 297.7)" />
            </g>
        </g>
    </g>
    <g fill="#0080FF">
        <g>
            <g>
                <path d="M 16.898438 -20.214844 L 16.898438 -3.28125 C 16.566406 -4.316406 16.171875 -5.351562 15.804688 -6.199219 L 9.421875 -20.214844 L 1.761719 -20.214844 L 1.761719 0 L 6.199219 0 L 6.199219 -16.898438 C 6.503906 -15.867188 6.898438 -14.832031 7.355469 -13.800781 L 13.679688 0 L 21.339844 0 L 21.339844 -20.214844 Z M 16.898438 -20.214844" transform="translate(226.648 297.7)" />
            </g>
        </g>
    </g>
</svg>