<svg xmlns="http://www.w3.org/2000/svg" width="375" viewBox="0 0 375 375" height="375" version="1.0"><defs><clipPath id="a"><path d="M 114.394531 141 L 156 141 L 156 212 L 114.394531 212 Z M 114.394531 141"/></clipPath><clipPath id="b"><path d="M 219 141 L 260.644531 141 L 260.644531 212 L 219 212 Z M 219 141"/></clipPath><clipPath id="c"><path d="M 163 116 L 217 116 L 217 236.464844 L 163 236.464844 Z M 163 116"/></clipPath></defs><g clip-path="url(#a)"><path fill="#0080FF" d="M 151.296875 211.195312 C 150.167969 211.195312 149.035156 210.765625 148.171875 209.90625 L 114.578125 176.386719 L 148.171875 142.867188 C 149.898438 141.144531 152.695312 141.144531 154.421875 142.867188 C 156.148438 144.585938 156.148438 147.378906 154.421875 149.097656 L 127.074219 176.386719 L 154.421875 203.671875 C 156.148438 205.394531 156.148438 208.183594 154.421875 209.90625 C 153.558594 210.765625 152.429688 211.195312 151.296875 211.195312"/></g><g clip-path="url(#b)"><path fill="#0080FF" d="M 223.761719 211.195312 C 222.628906 211.195312 221.5 210.765625 220.636719 209.90625 C 218.910156 208.183594 218.910156 205.394531 220.636719 203.671875 L 247.984375 176.386719 L 220.636719 149.097656 C 218.910156 147.378906 218.910156 144.585938 220.636719 142.867188 C 222.363281 141.144531 225.160156 141.144531 226.886719 142.867188 L 260.480469 176.386719 L 226.886719 209.90625 C 226.023438 210.765625 224.890625 211.195312 223.761719 211.195312"/></g><g clip-path="url(#c)"><path fill="#0080FF" d="M 167.707031 236.472656 C 167.160156 236.472656 166.601562 236.371094 166.0625 236.152344 C 163.796875 235.246094 162.699219 232.679688 163.609375 230.417969 L 208.472656 119.0625 C 209.382812 116.804688 211.953125 115.710938 214.21875 116.617188 C 216.484375 117.523438 217.582031 120.09375 216.667969 122.351562 L 171.808594 233.707031 C 171.113281 235.429688 169.457031 236.472656 167.707031 236.472656"/></g><g fill="#0080FF"><g><g><path d="M 11.945312 0.515625 C 19.089844 0.515625 21.886719 -2.339844 22.3125 -8.175781 L 17.539062 -8.175781 C 17.296875 -5.015625 15.777344 -3.28125 11.886719 -3.28125 C 7.84375 -3.28125 6.199219 -5.625 6.199219 -10.089844 C 6.199219 -14.621094 7.964844 -16.960938 12.035156 -16.960938 C 15.777344 -16.960938 17.203125 -15.257812 17.476562 -12.28125 L 22.21875 -12.28125 C 21.761719 -17.8125 18.9375 -20.730469 11.976562 -20.730469 C 4.378906 -20.730469 1.367188 -15.683594 1.367188 -10.089844 C 1.367188 -4.40625 4.347656 0.515625 11.945312 0.515625 Z M 11.945312 0.515625" transform="translate(70.147 297.7)"/></g></g></g><g fill="#0080FF"><g><g><path d="M 1.671875 -7.570312 C 1.671875 -2.28125 4.710938 0.488281 10.761719 0.488281 C 16.808594 0.488281 19.816406 -2.308594 19.816406 -7.570312 L 19.816406 -20.214844 L 15.226562 -20.214844 L 15.226562 -8.207031 C 15.226562 -4.285156 13.738281 -3.28125 10.761719 -3.28125 C 7.78125 -3.28125 6.292969 -4.285156 6.292969 -8.207031 L 6.292969 -20.214844 L 1.671875 -20.214844 Z M 1.671875 -7.570312" transform="translate(93.672 297.7)"/></g></g></g><g fill="#0080FF"><g><g><path d="M 1.183594 -6.65625 C 1.335938 -2.980469 3.617188 0.515625 10.273438 0.515625 C 16.597656 0.515625 19.058594 -2.066406 19.058594 -6.046875 C 19.058594 -9.574219 16.992188 -11.519531 12.886719 -11.976562 L 8.664062 -12.492188 C 6.992188 -12.675781 6.292969 -13.554688 6.292969 -14.742188 C 6.292969 -16.324219 7.597656 -17.324219 10.0625 -17.324219 C 12.734375 -17.324219 14.074219 -16.109375 14.316406 -14.226562 L 18.84375 -14.226562 C 18.601562 -17.8125 16.109375 -20.730469 10.0625 -20.730469 C 4.378906 -20.730469 1.640625 -18.117188 1.640625 -14.46875 C 1.640625 -11.125 3.648438 -9.148438 7.234375 -8.722656 L 11.703125 -8.144531 C 13.496094 -7.902344 14.40625 -7.113281 14.40625 -5.59375 C 14.40625 -3.980469 13.40625 -2.917969 10.335938 -2.917969 C 7.144531 -2.917969 5.804688 -4.5 5.683594 -6.65625 Z M 1.183594 -6.65625" transform="translate(115.16 297.7)"/></g></g></g><g fill="#0080FF"><g><g><path d="M 18.9375 -20.214844 L 1.003906 -20.214844 L 1.003906 -16.566406 L 7.660156 -16.566406 L 7.660156 0 L 12.28125 0 L 12.28125 -16.566406 L 18.9375 -16.566406 Z M 18.9375 -20.214844" transform="translate(135.464 297.7)"/></g></g></g><g fill="#0080FF"><g><g><path d="M 12.035156 0.515625 C 19.789062 0.515625 22.675781 -4.527344 22.675781 -10.089844 C 22.675781 -15.5625 19.789062 -20.730469 12.035156 -20.730469 C 4.285156 -20.730469 1.367188 -15.59375 1.367188 -10.089844 C 1.367188 -4.5 4.285156 0.515625 12.035156 0.515625 Z M 6.199219 -10.089844 C 6.199219 -14.558594 7.597656 -16.960938 12.035156 -16.960938 C 16.476562 -16.960938 17.871094 -14.558594 17.871094 -10.089844 C 17.871094 -5.683594 16.476562 -3.28125 12.035156 -3.28125 C 7.597656 -3.28125 6.199219 -5.683594 6.199219 -10.089844 Z M 6.199219 -10.089844" transform="translate(155.402 297.7)"/></g></g></g><g fill="#0080FF"><g><g><path d="M 26.992188 -20.214844 L 19.179688 -20.214844 L 14.4375 -4.558594 L 9.695312 -20.214844 L 1.761719 -20.214844 L 1.761719 0 L 6.351562 0 L 6.351562 -17.265625 L 11.703125 0 L 17.050781 0 L 22.371094 -17.171875 L 22.371094 0 L 26.992188 0 Z M 26.992188 -20.214844" transform="translate(179.444 297.7)"/></g></g></g><g fill="#0080FF"><g><g><path d="M 11.945312 0.515625 C 19.089844 0.515625 21.886719 -2.339844 22.3125 -8.175781 L 17.539062 -8.175781 C 17.296875 -5.015625 15.777344 -3.28125 11.886719 -3.28125 C 7.84375 -3.28125 6.199219 -5.625 6.199219 -10.089844 C 6.199219 -14.621094 7.964844 -16.960938 12.035156 -16.960938 C 15.777344 -16.960938 17.203125 -15.257812 17.476562 -12.28125 L 22.21875 -12.28125 C 21.761719 -17.8125 18.9375 -20.730469 11.976562 -20.730469 C 4.378906 -20.730469 1.367188 -15.683594 1.367188 -10.089844 C 1.367188 -4.40625 4.347656 0.515625 11.945312 0.515625 Z M 11.945312 0.515625" transform="translate(215.855 297.7)"/></g></g></g><g fill="#0080FF"><g><g><path d="M 12.035156 0.515625 C 19.789062 0.515625 22.675781 -4.527344 22.675781 -10.089844 C 22.675781 -15.5625 19.789062 -20.730469 12.035156 -20.730469 C 4.285156 -20.730469 1.367188 -15.59375 1.367188 -10.089844 C 1.367188 -4.5 4.285156 0.515625 12.035156 0.515625 Z M 6.199219 -10.089844 C 6.199219 -14.558594 7.597656 -16.960938 12.035156 -16.960938 C 16.476562 -16.960938 17.871094 -14.558594 17.871094 -10.089844 C 17.871094 -5.683594 16.476562 -3.28125 12.035156 -3.28125 C 7.597656 -3.28125 6.199219 -5.683594 6.199219 -10.089844 Z M 6.199219 -10.089844" transform="translate(239.38 297.7)"/></g></g></g><g fill="#0080FF"><g><g><path d="M 11.488281 -20.214844 L 1.761719 -20.214844 L 1.761719 0 L 11.488281 0 C 18.054688 0 21.035156 -4.800781 21.035156 -10.152344 C 21.035156 -15.472656 18.054688 -20.214844 11.488281 -20.214844 Z M 10.457031 -3.679688 L 6.382812 -3.679688 L 6.382812 -16.566406 L 10.457031 -16.566406 C 14.558594 -16.566406 16.230469 -14.46875 16.230469 -10.152344 C 16.230469 -5.867188 14.589844 -3.679688 10.457031 -3.679688 Z M 10.457031 -3.679688" transform="translate(263.422 297.7)"/></g></g></g><g fill="#0080FF"><g><g><path d="M 6.382812 -3.679688 L 6.382812 -8.601562 L 16.71875 -8.601562 L 16.71875 -12.035156 L 6.382812 -12.035156 L 6.382812 -16.566406 L 17.628906 -16.566406 L 17.628906 -20.214844 L 1.761719 -20.214844 L 1.761719 0 L 17.722656 0 L 17.722656 -3.679688 Z M 6.382812 -3.679688" transform="translate(285.61 297.7)"/></g></g></g><path fill="#0080FF" d="M 330.691406 40.765625 C 332.636719 40.765625 334.234375 42.363281 334.234375 44.308594 L 334.234375 330.691406 C 334.234375 332.636719 332.636719 334.234375 330.691406 334.234375 L 44.308594 334.234375 C 42.363281 334.234375 40.765625 332.636719 40.765625 330.691406 L 40.765625 44.308594 C 40.765625 42.363281 42.363281 40.765625 44.308594 40.765625 L 330.691406 40.765625 M 330.691406 37.5 L 44.308594 37.5 C 40.554688 37.5 37.5 40.558594 37.5 44.308594 L 37.5 330.691406 C 37.5 334.445312 40.554688 337.5 44.308594 337.5 L 330.691406 337.5 C 334.445312 337.5 337.5 334.445312 337.5 330.691406 L 337.5 44.308594 C 337.5 40.558594 334.445312 37.5 330.691406 37.5"/></svg>