<svg xmlns="http://www.w3.org/2000/svg" width="375" viewBox="0 0 375 375" height="375" version="1.0"><defs><clipPath id="a"><path d="M 97 92.601562 L 278 92.601562 L 278 241.851562 L 97 241.851562 Z M 97 92.601562"/></clipPath></defs><path fill="#0080FF" d="M 330.691406 40.765625 C 332.636719 40.765625 334.234375 42.363281 334.234375 44.308594 L 334.234375 330.691406 C 334.234375 332.636719 332.636719 334.234375 330.691406 334.234375 L 44.308594 334.234375 C 42.363281 334.234375 40.765625 332.636719 40.765625 330.691406 L 40.765625 44.308594 C 40.765625 42.363281 42.363281 40.765625 44.308594 40.765625 L 330.691406 40.765625 M 330.691406 37.5 L 44.308594 37.5 C 40.554688 37.5 37.5 40.554688 37.5 44.308594 L 37.5 330.691406 C 37.5 334.445312 40.554688 337.5 44.308594 337.5 L 330.691406 337.5 C 334.445312 337.5 337.5 334.445312 337.5 330.691406 L 337.5 44.308594 C 337.5 40.554688 334.445312 37.5 330.691406 37.5"/><g clip-path="url(#a)"><path fill="#0080FF" d="M 190.394531 223.195312 L 190.394531 235.632812 L 243.097656 235.632812 C 244.84375 235.632812 246.265625 237.09375 246.265625 238.742188 C 246.265625 240.460938 244.84375 241.851562 243.097656 241.851562 L 131.484375 241.851562 C 129.738281 241.851562 128.316406 240.394531 128.316406 238.742188 C 128.316406 237.027344 129.738281 235.632812 131.484375 235.632812 L 184.1875 235.632812 L 184.1875 223.195312 L 106.652344 223.195312 C 101.476562 223.195312 97.273438 218.988281 97.273438 213.902344 L 97.273438 101.898438 C 97.273438 96.75 101.414062 92.601562 106.652344 92.601562 L 267.929688 92.601562 C 273.105469 92.601562 277.308594 96.8125 277.308594 101.898438 L 277.308594 213.902344 C 277.308594 219.050781 273.167969 223.195312 267.929688 223.195312 Z M 112.761719 105.039062 C 111.082031 105.039062 109.691406 106.402344 109.691406 108.085938 L 109.691406 207.714844 C 109.691406 209.433594 111.082031 210.757812 112.761719 210.757812 L 261.820312 210.757812 C 263.5 210.757812 264.890625 209.398438 264.890625 207.714844 L 264.890625 108.085938 C 264.890625 106.367188 263.5 105.039062 261.820312 105.039062 Z M 112.761719 105.039062" fill-rule="evenodd"/></g><g fill="#0080FF"><g><g><path d="M 1.183594 -6.65625 C 1.335938 -2.980469 3.617188 0.515625 10.273438 0.515625 C 16.597656 0.515625 19.058594 -2.066406 19.058594 -6.046875 C 19.058594 -9.574219 16.992188 -11.519531 12.886719 -11.976562 L 8.664062 -12.492188 C 6.992188 -12.675781 6.292969 -13.554688 6.292969 -14.742188 C 6.292969 -16.324219 7.597656 -17.324219 10.0625 -17.324219 C 12.734375 -17.324219 14.074219 -16.109375 14.316406 -14.226562 L 18.84375 -14.226562 C 18.601562 -17.8125 16.109375 -20.730469 10.0625 -20.730469 C 4.378906 -20.730469 1.640625 -18.117188 1.640625 -14.46875 C 1.640625 -11.125 3.648438 -9.148438 7.234375 -8.722656 L 11.703125 -8.144531 C 13.496094 -7.902344 14.40625 -7.113281 14.40625 -5.59375 C 14.40625 -3.980469 13.40625 -2.917969 10.335938 -2.917969 C 7.144531 -2.917969 5.804688 -4.5 5.683594 -6.65625 Z M 1.183594 -6.65625" transform="translate(65.224 297.7)"/></g></g></g><g fill="#0080FF"><g><g><path d="M 13.859375 -16.566406 L 13.859375 -20.214844 L 1.761719 -20.214844 L 1.761719 -16.566406 L 5.5 -16.566406 L 5.5 -3.679688 L 1.761719 -3.679688 L 1.761719 0 L 13.859375 0 L 13.859375 -3.679688 L 10.121094 -3.679688 L 10.121094 -16.566406 Z M 13.859375 -16.566406" transform="translate(85.527 297.7)"/></g></g></g><g fill="#0080FF"><g><g><path d="M 18.9375 -20.214844 L 1.003906 -20.214844 L 1.003906 -16.566406 L 7.660156 -16.566406 L 7.660156 0 L 12.28125 0 L 12.28125 -16.566406 L 18.9375 -16.566406 Z M 18.9375 -20.214844" transform="translate(101.15 297.7)"/></g></g></g><g fill="#0080FF"><g><g><path d="M 6.382812 -3.679688 L 6.382812 -8.601562 L 16.71875 -8.601562 L 16.71875 -12.035156 L 6.382812 -12.035156 L 6.382812 -16.566406 L 17.628906 -16.566406 L 17.628906 -20.214844 L 1.761719 -20.214844 L 1.761719 0 L 17.722656 0 L 17.722656 -3.679688 Z M 6.382812 -3.679688" transform="translate(121.088 297.7)"/></g></g></g><g fill="#0080FF"><g><g><path d="M 26.992188 -20.214844 L 19.179688 -20.214844 L 14.4375 -4.558594 L 9.695312 -20.214844 L 1.761719 -20.214844 L 1.761719 0 L 6.351562 0 L 6.351562 -17.265625 L 11.703125 0 L 17.050781 0 L 22.371094 -17.171875 L 22.371094 0 L 26.992188 0 Z M 26.992188 -20.214844" transform="translate(148.016 297.7)"/></g></g></g><g fill="#0080FF"><g><g><path d="M 17.539062 0 L 22.1875 0 L 15.078125 -20.214844 L 8.023438 -20.214844 L 0.910156 0 L 5.5625 0 L 7.019531 -4.132812 L 16.078125 -4.132812 Z M 8.269531 -7.691406 L 11.550781 -17.023438 L 14.832031 -7.691406 Z M 8.269531 -7.691406" transform="translate(176.739 297.7)"/></g></g></g><g fill="#0080FF"><g><g><path d="M 16.898438 -20.214844 L 16.898438 -3.28125 C 16.566406 -4.316406 16.171875 -5.351562 15.804688 -6.199219 L 9.421875 -20.214844 L 1.761719 -20.214844 L 1.761719 0 L 6.199219 0 L 6.199219 -16.898438 C 6.503906 -15.867188 6.898438 -14.832031 7.355469 -13.800781 L 13.679688 0 L 21.339844 0 L 21.339844 -20.214844 Z M 16.898438 -20.214844" transform="translate(199.807 297.7)"/></g></g></g><g fill="#0080FF"><g><g><path d="M 17.539062 0 L 22.1875 0 L 15.078125 -20.214844 L 8.023438 -20.214844 L 0.910156 0 L 5.5625 0 L 7.019531 -4.132812 L 16.078125 -4.132812 Z M 8.269531 -7.691406 L 11.550781 -17.023438 L 14.832031 -7.691406 Z M 8.269531 -7.691406" transform="translate(222.907 297.7)"/></g></g></g><g fill="#0080FF"><g><g><path d="M 11.003906 0.515625 C 15.289062 0.515625 17.386719 -1.488281 18.207031 -3.890625 L 18.207031 0 L 22.160156 0 L 22.160156 -10.761719 L 10.546875 -10.761719 L 10.546875 -7.75 L 17.75 -7.75 C 17.386719 -5.226562 16.019531 -3.128906 12.007812 -3.128906 C 7.933594 -3.128906 6.199219 -5.53125 6.199219 -10.089844 C 6.199219 -14.894531 8.175781 -17.113281 12.21875 -17.113281 C 15.59375 -17.113281 17.234375 -15.683594 17.507812 -13.375 L 22.1875 -13.375 C 21.824219 -17.660156 18.996094 -20.730469 12.25 -20.730469 C 4.621094 -20.730469 1.367188 -16.019531 1.367188 -10.121094 C 1.367188 -4.253906 4.347656 0.515625 11.003906 0.515625 Z M 11.003906 0.515625" transform="translate(245.976 297.7)"/></g></g></g><g fill="#0080FF"><g><g><path d="M 6.382812 -3.679688 L 6.382812 -8.601562 L 16.71875 -8.601562 L 16.71875 -12.035156 L 6.382812 -12.035156 L 6.382812 -16.566406 L 17.628906 -16.566406 L 17.628906 -20.214844 L 1.761719 -20.214844 L 1.761719 0 L 17.722656 0 L 17.722656 -3.679688 Z M 6.382812 -3.679688" transform="translate(270.017 297.7)"/></g></g></g><g fill="#0080FF"><g><g><path d="M 18.570312 -4.925781 C 18.570312 -7.84375 16.960938 -8.875 14.894531 -9.390625 C 17.296875 -9.910156 19.117188 -11.824219 19.117188 -14.679688 C 19.117188 -17.964844 16.898438 -20.214844 12.433594 -20.214844 L 1.761719 -20.214844 L 1.761719 0 L 6.414062 0 L 6.414062 -7.8125 L 10.578125 -7.8125 C 12.582031 -7.8125 13.953125 -6.839844 13.953125 -4.558594 L 13.953125 -3.496094 C 13.953125 -1.824219 14.105469 -0.730469 14.347656 0 L 18.96875 0 C 18.753906 -0.972656 18.570312 -1.882812 18.570312 -3.554688 Z M 11.398438 -11.125 L 6.414062 -11.125 L 6.414062 -16.625 L 11.398438 -16.625 C 13.40625 -16.625 14.285156 -15.714844 14.285156 -14.011719 C 14.285156 -12.128906 13.496094 -11.125 11.398438 -11.125 Z M 11.398438 -11.125" transform="translate(289.256 297.7)"/></g></g></g></svg>