<svg xmlns="http://www.w3.org/2000/svg" viewBox="0 0 125.15 59.23"><defs><style>.cls-1{fill:#ee4249;}</style></defs><g id="Layer_2" data-name="Layer 2"><g id="Layer_3" data-name="Layer 3"><path class="cls-1" d="M8.69,3.37Q15.4,3.37,19,5.81t3.57,7.63a10.42,10.42,0,0,1-1,4.63,8,8,0,0,1-2.78,3.15A13,13,0,0,1,14.37,23a28.34,28.34,0,0,1-6,.57H5.59V34.41H0V4.12a28,28,0,0,1,4.32-.59C5.91,3.42,7.36,3.37,8.69,3.37Zm.4,4.83c-1.42,0-2.59.05-3.5.14V18.8h2.7a13.66,13.66,0,0,0,6.21-1.13q2.17-1.12,2.18-4.28a5.17,5.17,0,0,0-.58-2.53,4.21,4.21,0,0,0-1.6-1.59,7.52,7.52,0,0,0-2.41-.82A17.76,17.76,0,0,0,9.09,8.2Z"/><path class="cls-1" d="M34.46,34.86a14.78,14.78,0,0,1-4-.53A6.24,6.24,0,0,1,28,32.93a5.06,5.06,0,0,1-1.31-2.26,11.58,11.58,0,0,1-.37-3.09V.89L31.66,0V26.56a7.61,7.61,0,0,0,.16,1.65,2.66,2.66,0,0,0,.55,1.13,2.59,2.59,0,0,0,1.09.71,8.81,8.81,0,0,0,1.75.37Z"/><path class="cls-1" d="M37.3,22.93a14.52,14.52,0,0,1,.91-5.37,11.19,11.19,0,0,1,2.41-3.83,10.11,10.11,0,0,1,3.46-2.31,10.65,10.65,0,0,1,4-.78,9.56,9.56,0,0,1,7.48,3c1.78,2,2.68,4.94,2.68,8.87,0,.3,0,.63,0,1s0,.7-.07,1H42.84a6.15,6.15,0,0,0,2,4.32,7.5,7.5,0,0,0,5.08,1.53A16.5,16.5,0,0,0,53.46,30,15.6,15.6,0,0,0,56,29.23l.71,4.39a8.94,8.94,0,0,1-1.22.46q-.78.24-1.77.45c-.67.13-1.38.24-2.15.33a20.31,20.31,0,0,1-2.35.13,14.2,14.2,0,0,1-5.33-.91,9.83,9.83,0,0,1-3.72-2.53A10.19,10.19,0,0,1,38,27.74,15.36,15.36,0,0,1,37.3,22.93Zm15.56-2.4a6.88,6.88,0,0,0-.31-2.1,4.93,4.93,0,0,0-.91-1.73,4.37,4.37,0,0,0-1.46-1.16,4.67,4.67,0,0,0-2.06-.42,4.86,4.86,0,0,0-2.18.47,5,5,0,0,0-1.57,1.22,5.6,5.6,0,0,0-1,1.73,9.81,9.81,0,0,0-.49,2Z"/><path class="cls-1" d="M62.93,12a38,38,0,0,1,4-.84,34.17,34.17,0,0,1,5.49-.4,12.58,12.58,0,0,1,4.75.78,7.49,7.49,0,0,1,3,2.17,8.36,8.36,0,0,1,1.59,3.37,18.9,18.9,0,0,1,.47,4.33v13H76.94V22.22a17.88,17.88,0,0,0-.24-3.17,5.61,5.61,0,0,0-.8-2.13,3.15,3.15,0,0,0-1.51-1.2,6.33,6.33,0,0,0-2.32-.38,17.56,17.56,0,0,0-2.13.14c-.74.09-1.29.16-1.64.22V34.41H62.93Z"/><path class="cls-1" d="M87.63,5.1,93,4.21v7h8.25V15.7H93v9.45a6.8,6.8,0,0,0,.89,4,3.49,3.49,0,0,0,3,1.19A9.76,9.76,0,0,0,99.5,30a17.71,17.71,0,0,0,1.79-.57l.89,4.25a21.18,21.18,0,0,1-2.44.83,13.35,13.35,0,0,1-3.55.42A11.34,11.34,0,0,1,92,34.28a6.05,6.05,0,0,1-2.63-1.93A7.68,7.68,0,0,1,88,29.29a18.74,18.74,0,0,1-.4-4.1Z"/><path class="cls-1" d="M125.15,11.22a168.86,168.86,0,0,1-8.32,24A23.65,23.65,0,0,1,115,38.58a10,10,0,0,1-2.09,2.35,7.49,7.49,0,0,1-2.57,1.36,11.68,11.68,0,0,1-3.29.42,11.31,11.31,0,0,1-2.46-.27,8.3,8.3,0,0,1-1.85-.58l1-4.3a8.58,8.58,0,0,0,3.16.62,5,5,0,0,0,3.28-1,8.16,8.16,0,0,0,2.07-3.09q-2.53-4.87-4.88-10.64a114.71,114.71,0,0,1-4.16-12.24h5.72c.3,1.24.66,2.59,1.09,4s.9,2.92,1.4,4.41,1,3,1.6,4.46,1.13,2.85,1.7,4.12q1.41-3.94,2.65-8.4c.82-3,1.57-5.85,2.25-8.63Z"/><path class="cls-1" d="M8.05,49.58v9.59H6.54V54.94H1.71v4.23H.18V49.58H1.71v4H6.54v-4Z"/><path class="cls-1" d="M13.2,49.58h1.43l3.72,9.59H16.76l-.94-2.61H12l-.94,2.61H9.46Zm2.22,5.86-1.51-4.2-1.51,4.2Z"/><path class="cls-1" d="M19.76,59.17V49.58h4.17a2.63,2.63,0,0,1,1.19.27,3.14,3.14,0,0,1,.94.72,3.43,3.43,0,0,1,.62,1,3.24,3.24,0,0,1,.22,1.13,3.31,3.31,0,0,1-.23,1.22,2.69,2.69,0,0,1-.66,1,2.42,2.42,0,0,1-1,.61l2.26,3.65h-1.7L23.5,55.83H21.28v3.34Zm1.52-4.67h2.64a1.24,1.24,0,0,0,.74-.25,1.89,1.89,0,0,0,.51-.66,2,2,0,0,0,.19-.89,1.82,1.82,0,0,0-.22-.9,2,2,0,0,0-.56-.65,1.35,1.35,0,0,0-.75-.23H21.28Z"/><path class="cls-1" d="M28.9,59.17V49.58h3.4a4.92,4.92,0,0,1,2.59.64A4.18,4.18,0,0,1,36.44,52a5.85,5.85,0,0,1,0,4.95,4.1,4.1,0,0,1-1.63,1.67,4.91,4.91,0,0,1-2.47.6Zm6.53-4.81a4,4,0,0,0-.37-1.78A3,3,0,0,0,34,51.36a3.1,3.1,0,0,0-1.69-.44H30.42v6.91H32.3a2.87,2.87,0,0,0,2.77-1.7A4.18,4.18,0,0,0,35.43,54.36Z"/><path class="cls-1" d="M42.33,59.17V49.58h1.52v5l4.5-5H50l-3.76,4.24,4,5.36H48.53l-3.24-4.4-1.44,1.49v2.91Z"/><path class="cls-1" d="M54.87,59.23a4.21,4.21,0,0,1-1.85-.4,4.61,4.61,0,0,1-1.45-1.1,5,5,0,0,1-.94-1.57,4.86,4.86,0,0,1,0-3.62,5.19,5.19,0,0,1,1-1.55,5,5,0,0,1,1.46-1.08,4.3,4.3,0,0,1,1.83-.4,4.08,4.08,0,0,1,1.87.42,4.91,4.91,0,0,1,1.44,1.12,5.3,5.3,0,0,1,.93,1.57,5,5,0,0,1,.32,1.78,5.1,5.1,0,0,1-.33,1.82,4.89,4.89,0,0,1-1,1.55,4.67,4.67,0,0,1-1.46,1.07A4.24,4.24,0,0,1,54.87,59.23Zm-3-4.86a4.15,4.15,0,0,0,.21,1.32,3.66,3.66,0,0,0,.6,1.12,3,3,0,0,0,1,.78,2.8,2.8,0,0,0,1.28.28,2.7,2.7,0,0,0,1.29-.3,2.75,2.75,0,0,0,1-.8,3.83,3.83,0,0,0,.6-1.13,4.16,4.16,0,0,0,.2-1.27,3.78,3.78,0,0,0-.22-1.3A3.5,3.5,0,0,0,57.11,52a3,3,0,0,0-1-.78,2.87,2.87,0,0,0-1.25-.28,2.68,2.68,0,0,0-1.3.3,2.86,2.86,0,0,0-1,.8,3.43,3.43,0,0,0-.59,1.12A3.86,3.86,0,0,0,51.85,54.37Z"/><path class="cls-1" d="M69.33,59.17V52.34l-2.82,5.18h-.89L62.8,52.34v6.83H61.27V49.58h1.62l3.17,5.85,3.17-5.85h1.62v9.59Z"/><path class="cls-1" d="M80.76,56.7a2.18,2.18,0,0,1-.4,1.32,2.65,2.65,0,0,1-1.07.85,3.53,3.53,0,0,1-1.48.3H73.23V49.58h4.94a1.94,1.94,0,0,1,1.17.36,2.36,2.36,0,0,1,.76.92A2.77,2.77,0,0,1,80.36,52a2.55,2.55,0,0,1-.36,1.3,2.17,2.17,0,0,1-1,.92,2.43,2.43,0,0,1,1.3.89A2.56,2.56,0,0,1,80.76,56.7Zm-6-5.82v2.85h2.76a1.29,1.29,0,0,0,.68-.19,1.45,1.45,0,0,0,.65-1.23,1.61,1.61,0,0,0-.16-.74,1.19,1.19,0,0,0-.44-.5,1.11,1.11,0,0,0-.65-.19Zm4.47,5.53a1.56,1.56,0,0,0-.18-.74,1.53,1.53,0,0,0-.47-.54,1.19,1.19,0,0,0-.68-.2H74.76v2.94h3a1.27,1.27,0,0,0,.72-.21,1.72,1.72,0,0,0,.51-.53A1.49,1.49,0,0,0,79.23,56.41Z"/><path class="cls-1" d="M86.56,59.23a4.36,4.36,0,0,1-1.94-.39,3.3,3.3,0,0,1-1.27-1.06,4.7,4.7,0,0,1-.7-1.54,7.16,7.16,0,0,1-.22-1.8V49.58H84v4.86a6,6,0,0,0,.13,1.28,3.54,3.54,0,0,0,.42,1.1,2.27,2.27,0,0,0,.8.77,2.47,2.47,0,0,0,1.24.28,2.52,2.52,0,0,0,1.27-.28,2.16,2.16,0,0,0,.8-.79,3.43,3.43,0,0,0,.44-1.1,6.57,6.57,0,0,0,.13-1.26V49.58H90.7v4.86a7,7,0,0,1-.24,1.86,4.34,4.34,0,0,1-.73,1.53,3.18,3.18,0,0,1-1.28,1A4.37,4.37,0,0,1,86.56,59.23Z"/><path class="cls-1" d="M92.32,54.29a4.88,4.88,0,0,1,.31-1.72A5.13,5.13,0,0,1,93.54,51,4.43,4.43,0,0,1,95,49.93a4.37,4.37,0,0,1,2-.42,4.19,4.19,0,0,1,2.25.59,3.82,3.82,0,0,1,1.4,1.51l-1.19.79a2.45,2.45,0,0,0-.67-.91,2.31,2.31,0,0,0-.9-.48,3.49,3.49,0,0,0-.94-.13A2.72,2.72,0,0,0,94.64,52a3.41,3.41,0,0,0-.58,1.12,4.39,4.39,0,0,0-.19,1.24,3.91,3.91,0,0,0,.23,1.33,3.47,3.47,0,0,0,.63,1.13,3,3,0,0,0,1,.78,2.72,2.72,0,0,0,1.24.28,3.08,3.08,0,0,0,1-.16,2.88,2.88,0,0,0,.92-.51,2.34,2.34,0,0,0,.67-.9l1.26.71a2.9,2.9,0,0,1-.91,1.21,4.58,4.58,0,0,1-1.41.76,5,5,0,0,1-1.56.25,4,4,0,0,1-1.82-.42,4.58,4.58,0,0,1-1.45-1.14,5.13,5.13,0,0,1-1-1.59A4.86,4.86,0,0,1,92.32,54.29Z"/><path class="cls-1" d="M110.25,49.58v9.59h-1.51V54.94H103.9v4.23h-1.52V49.58h1.52v4h4.84v-4Z"/><path class="cls-1" d="M115.39,49.58h1.43l3.73,9.59H119L118,56.56h-3.83l-1,2.61h-1.59Zm2.23,5.86-1.51-4.2-1.52,4.2Z"/></g></g></svg>